<?xml version="1.0" encoding="utf-8" ?>
<svg baseProfile="full" height="300mm" version="1.1" viewBox="0,0,200,300" width="200mm" xmlns="http://www.w3.org/2000/svg" xmlns:ev="http://www.w3.org/2001/xml-events" xmlns:xlink="http://www.w3.org/1999/xlink"><defs /><rect fill="#222222" height="300" width="200" x="0" y="0" /><text fill="#FFFFFF" style="font-size:12px; font-family:Arial; font-weight:bold;" x="10" y="20">Over 10km Runs</text><text fill="#FFFFFF" style="font-size:4px; font-family:Arial" x="10" y="280">ATHLETE</text><text fill="#FFFFFF" style="font-size:9px; font-family:Arial" x="10" y="290">tougee</text><text fill="#FFFFFF" style="font-size:4px; font-family:Arial" x="120" y="280">STATISTICS</text><text fill="#FFFFFF" style="font-size:3px; font-family:Arial" x="120" y="285">Number: 4</text><text fill="#FFFFFF" style="font-size:3px; font-family:Arial" x="120" y="290">Weekly: 1.0</text><text fill="#FFFFFF" style="font-size:3px; font-family:Arial" x="141" y="285">Total: 52.2 km</text><text fill="#FFFFFF" style="font-size:3px; font-family:Arial" x="141" y="290">Avg: 13.0 km</text><text fill="#FFFFFF" style="font-size:3px; font-family:Arial" x="167" y="285">Min: 10.3 km</text><text fill="#FFFFFF" style="font-size:3px; font-family:Arial" x="167" y="290">Max: 17.3 km</text><polyline fill="none" points="92.45247524767183,75.27946841125959 92.23861386161298,75.34933516033925 92.02475247555412,75.41920189917437 91.49009901029058,75.2096016521682 91.22277227742597,75.2096016521682 90.90198019845411,75.2096016521682 90.74158415873535,75.27946841125959 90.47425742610358,75.34933516033925 90.2603960398119,75.34933516033925 90.04653465352021,75.34933516033925 89.77920792088844,75.34933516033925 89.2445544556249,75.4890686274739 88.92376237665303,75.4890686274739 88.60297029744834,75.41920189917437 88.01485148537904,75.41920189917437 87.42673267354257,75.41920189917437 87.21287128748372,75.34933516033925 86.99900990119204,75.41920189917437 86.67821782198735,75.41920189917437 86.35742574278265,75.41920189917437 86.03663366381079,75.41920189917437 85.34158415859565,75.27946841125959 85.07425742596388,75.27946841125959 84.69999999995343,75.2096016521682 84.48613861412741,75.2096016521682 84.05841584177688,75.34933516033925 83.79108910891227,75.34933516033925 83.41683168336749,75.34933516033925 83.0960396041628,75.34933516033925 82.7752475249581,75.41920189917437 82.56138613866642,75.41920189917437 82.02673267340288,75.41920189917437 81.75940594100393,75.34933516033925 81.49207920813933,75.27946841125959 80.90396039630286,75.4890686274739 80.74356435681693,75.62880205351394 80.31584158423357,75.69866875116713 80.10198019840755,75.69866875116713 79.83465346554294,75.76853543843026 79.3000000002794,75.83840211571078 78.92574257426895,75.76853543843026 78.71188118844293,75.69866875116713 78.55148514872417,75.62880205351394 78.2841584160924,75.55893534549978 78.12376237660646,75.55893534549978 77.74950495059602,75.4890686274739 77.21485148533247,75.41920189917437 76.89405940612778,75.41920189917437 76.68019802006893,75.41920189917437 76.51980198035017,75.41920189917437 76.14554455457255,75.41920189917437 75.98514851531945,75.41920189917437 75.77128712902777,75.34933516033925 75.55742574250326,75.34933516033925 75.07623762404546,75.34933516033925 74.75544554484077,75.34933516033925 74.38118811906315,75.34933516033925 74.06039603962563,75.34933516033925 73.79306930722669,75.27946841125959 73.09801980247721,75.27946841125959 72.93762376252562,75.27946841125959 72.72376237646677,75.2096016521682 72.34950495045632,75.13973488274496 72.08217821782455,75.06986810298986 71.8148514854256,75.00000131307752 71.22673267358914,75.00000131307752 70.95940594072454,74.93013451277511 70.69207920809276,74.93013451277511 70.37128712888807,74.86026770208264 69.99702970311046,74.86026770208264 69.62277227756567,74.79040088146576 69.35544554470107,74.86026770208264 68.82079207967035,74.79040088146576 68.66039603971876,74.79040088146576 68.44653465365991,74.79040088146576 68.0722772278823,74.79040088146576 67.80495049525052,74.79040088146576 67.59108910919167,74.79040088146576 67.3237623765599,74.79040088146576 66.94950495078228,74.79040088146576 66.68217821791768,74.86026770208264 66.41485148528591,74.93013451277511 66.20099009922706,75.00000131307752 66.04059405974112,75.13973488274496 65.61287128739059,75.06986810298986 65.34554455475882,75.06986810298986 65.02475247555412,75.06986810298986 64.70396039634943,75.06986810298986 64.32970297033899,75.00000131307752 64.11584158428013,75.00000131307752 63.6881188119296,74.93013451277511 63.420792079297826,74.86026770208264 62.99306930718012,74.86026770208264 62.77920792112127,74.86026770208264 62.56534653506242,74.86026770208264 62.351485148770735,74.79040088146576 62.13762376224622,74.79040088146576 61.9237623764202,74.72053405060433 61.496039604302496,74.72053405060433 61.1752475250978,74.79040088146576 60.533663366455585,74.79040088146576 60.37326732696965,74.72053405060433 60.15940594067797,74.72053405060433 59.94554455461912,74.65066720935283 59.67821782222018,74.51093349599978 59.517821782501414,74.44106662386912 58.769306930713356,74.37119974149391 58.39504950516857,74.44106662386912 58.18118811910972,74.44106662386912 57.96732673281804,74.44106662386912 57.646534653613344,74.44106662386912 57.32574257440865,74.44106662386912 56.791089109145105,74.44106662386912 56.63069306965917,74.44106662386912 56.30990099045448,74.44106662386912 55.989108911016956,74.51093349599978 55.66831683181226,74.51093349599978 55.50792079232633,74.51093349599978 55.18712871288881,74.44106662386912 54.866336633684114,74.51093349599978 54.22475247527473,74.58080035774037 54.117821782361716,74.58080035774037 53.85049504972994,74.65066720935283 53.63663366343826,74.65066720935283 53.31584158423357,74.65066720935283 53.155445544747636,74.65066720935283 52.88811881188303,74.65066720935283 52.35346534661949,74.65066720935283 52.139603960560635,74.65066720935283 51.76534653501585,74.65066720935283 51.44455445557833,74.65066720935283 51.230693069519475,74.65066720935283 51.01683168322779,74.65066720935283 50.80297029716894,74.65066720935283 50.42871287162416,74.65066720935283 50.16138613875955,74.65066720935283 49.9475247527007,74.65066720935283 49.62673267349601,74.58080035774037 49.412871287204325,74.58080035774037 49.03861386165954,74.65066720935283 48.450495049590245,74.65066720935283 48.12970297015272,74.58080035774037 47.9158415843267,74.58080035774037 47.595049505122006,74.58080035774037 47.3277227722574,74.58080035774037 47.06039604009129,74.65066720935283 46.41881188121624,74.72053405060433 46.09801980224438,74.79040088146576 45.8841584159527,74.79040088146576 45.616831683320925,74.79040088146576 45.40297029702924,74.79040088146576 45.24257425731048,74.79040088146576 44.86831683199853,74.79040088146576 44.22673267335631,74.65066720935283 44.01287128706463,74.65066720935283 43.692079208325595,74.65066720935283 43.31782178231515,74.65066720935283 42.62277227710001,74.51093349599978 42.30198019836098,74.51093349599978 41.981188119156286,74.44106662386912 41.66039603971876,74.44106662386912 41.33960396051407,74.44106662386912 40.64455445553176,74.51093349599978 40.32376237632707,74.51093349599978 40.002970297355205,74.51093349599978 39.78910891106352,74.44106662386912 39.468316831626,74.44106662386912 38.77326732687652,74.30133284899057 38.39900990109891,74.30133284899057 38.02475247532129,74.30133284899057 37.70396039634943,74.30133284899057 37.329702970338985,74.30133284899057 36.367326732724905,74.16159903330845 36.04653465375304,74.23146594630089 35.77920792112127,74.23146594630089 35.458415841916576,74.23146594630089 35.19108910881914,74.16159903330845 34.81683168327436,74.16159903330845 34.549504950642586,74.23146594630089 33.85445544566028,74.23146594630089 33.587128713028505,74.23146594630089 33.3198019801639,74.23146594630089 33.05247524776496,74.23146594630089 32.89207920781337,74.23146594630089 32.571287128841504,74.23146594630089 32.09009901015088,74.30133284899057 31.822772277053446,74.37119974149391 31.501980198081583,74.37119974149391 31.18118811887689,74.44106662386912 30.913861386245117,74.44106662386912 30.539603960467502,74.44106662386912 29.898019802058116,74.37119974149391 29.577227722853422,74.37119974149391 29.25643564364873,74.37119974149391 28.882178218103945,74.37119974149391 28.240594059461728,74.37119974149391 27.919801980257034,74.44106662386912 27.705940594198182,74.51093349599978 27.331683168420568,74.44106662386912 27.010891089215875,74.44106662386912 26.69009901001118,74.51093349599978 26.155445544514805,74.44106662386912 25.83465346531011,74.44106662386912 25.460396039532498,74.51093349599978 25.139603960560635,74.51093349599978 24.87227722769603,74.51093349599978 24.337623762432486,74.44106662386912 24.177227722713724,74.44106662386912 23.96336633665487,74.37119974149391 23.74950495036319,74.37119974149391 23.375247524818406,74.37119974149391 23.214851485332474,74.37119974149391 23.000990099273622,74.30133284899057 22.78712871298194,74.30133284899057 22.145544554572552,74.23146594630089 21.87821782194078,74.16159903330845 21.450495049590245,73.95199823239818 21.02277227723971,73.88213127831114 20.9158415843267,73.88213127831114 20.755445544607937,74.0218651764153 20.541584158316255,74.09173210986773 19.899999999906868,74.23146594630089 19.686138613848016,74.37119974149391 19.899999999906868,74.44106662386912 20.06039603962563,74.58080035774037 20.755445544607937,74.86026770208264 21.290099009871483,74.65066720935283 21.71782178245485,74.65066720935283 21.93168316828087,74.65066720935283 22.199009901145473,74.79040088146576 22.573267326690257,74.86026770208264 22.94752475246787,75.00000131307752 23.161386138526723,75.00000131307752 23.6960396040231,75.06986810298986 23.96336633665487,75.00000131307752 24.284158416092396,75.00000131307752 24.65841584140435,75.00000131307752 24.81881188135594,75.00000131307752 25.460396039532498,74.93013451277511 25.78118811897002,75.00000131307752 26.101980198174715,75.06986810298986 26.369306930806488,75.13973488274496 26.63663366343826,75.13973488274496 26.850495049497113,75.13973488274496 27.331683168420568,75.06986810298986 27.54554455447942,75.06986810298986 27.866336633684114,75.06986810298986 28.080198019975796,75.06986810298986 28.668316831812263,75.06986810298986 28.989108911016956,75.13973488274496 29.30990099022165,75.13973488274496 29.577227722853422,75.13973488274496 29.898019802058116,75.13973488274496 30.16534653468989,75.13973488274496 30.860396039905027,75.13973488274496 31.18118811887689,75.13973488274496 31.39504950493574,75.13973488274496 31.715841584140435,75.13973488274496 31.929702970432118,75.06986810298986 32.25049504986964,75.06986810298986 32.517821782268584,75.06986810298986 32.99900990095921,75.06986810298986 33.26633663382381,75.13973488274496 33.480198019882664,75.13973488274496 33.694059405941516,75.2096016521682 33.9079207922332,75.2096016521682 34.22871287143789,75.2096016521682 34.442574257496744,75.2096016521682 34.87029702984728,75.27946841125959 35.08415841590613,75.27946841125959 35.458415841916576,75.13973488274496 35.6722772277426,75.13973488274496 35.88613861403428,75.13973488274496 36.04653465375304,75.06986810298986 36.260396039811894,75.06986810298986 36.58118811878376,75.06986810298986 37.222772277425975,75.13973488274496 37.54356435663067,75.13973488274496 37.75742574268952,75.13973488274496 38.39900990109891,75.06986810298986 38.61287128739059,75.00000131307752 38.82673267344944,74.93013451277511 39.36138613871299,74.93013451277511 39.62871287157759,74.93013451277511 39.84257425740361,74.93013451277511 40.163366336841136,74.93013451277511 40.43069306947291,74.93013451277511 40.7514851486776,75.00000131307752 41.072277227882296,75.06986810298986 41.60693069314584,75.13973488274496 41.927722772350535,75.13973488274496 42.19504950498231,75.13973488274496 42.51584158441983,75.13973488274496 42.836633663391694,75.13973488274496 43.47821782203391,75.2096016521682 43.799009901238605,75.27946841125959 44.06633663387038,75.27946841125959 44.600990099133924,75.2096016521682 44.92178217833862,75.2096016521682 45.24257425731048,75.27946841125959 45.563366336748004,75.27946841125959 45.830693069146946,75.34933516033925 46.09801980224438,75.34933516033925 46.36534653487615,75.34933516033925 47.00693069328554,75.34933516033925 47.434653465403244,75.34933516033925 47.75544554484077,75.41920189917437 48.02277227723971,75.41920189917437 48.397029703250155,75.41920189917437 48.9316831685137,75.41920189917437 49.252475247718394,75.34933516033925 49.46633663401008,75.34933516033925 49.73366336664185,75.34933516033925 49.9475247527007,75.34933516033925 50.16138613875955,75.34933516033925 50.42871287162416,75.34933516033925 50.9633663368877,75.34933516033925 51.33762376266532,75.34933516033925 51.65841584163718,75.34933516033925 51.97920792084187,75.34933516033925 52.35346534661949,75.34933516033925 52.56732673291117,75.34933516033925 53.101980198174715,75.41920189917437 53.42277227761224,75.41920189917437 53.957425742642954,75.34933516033925 54.43861386156641,75.27946841125959 54.812871287344024,75.34933516033925 54.973267327062786,75.34933516033925 55.40099009941332,75.34933516033925 55.72178217815235,75.27946841125959 56.0960396041628,75.27946841125959 56.68415841599926,75.27946841125959 57.00495049520396,75.27946841125959 57.32574257440865,75.27946841125959 57.48613861412741,75.34933516033925 57.753465346759185,75.34933516033925 58.1277227725368,75.34933516033925 58.34158415836282,75.34933516033925 58.98316831700504,75.34933516033925 59.30396039620973,75.34933516033925 59.571287129074335,75.34933516033925 59.89207920827903,75.34933516033925 60.26633663382381,75.34933516033925 60.533663366455585,75.27946841125959 61.1752475250978,75.2096016521682 61.70990099012852,75.2096016521682 61.87029702984728,75.13973488274496 62.56534653506242,75.13973488274496 62.88613861403428,75.2096016521682 63.260396039811894,75.2096016521682 63.63465346558951,75.2096016521682 63.95544554456137,75.27946841125959 64.43663366348483,75.34933516033925 64.75742574268952,75.2096016521682 65.34554455475882,75.2096016521682 65.61287128739059,75.27946841125959 65.93366336659528,75.27946841125959 66.25445544556715,75.27946841125959 66.57524752477184,75.34933516033925 66.84257425786927,75.34933516033925 67.37722772289999,75.41920189917437 67.7514851486776,75.41920189917437 67.91188118816353,75.41920189917437 68.12574257445522,75.41920189917437 68.28613861394115,75.41920189917437 68.60693069314584,75.41920189917437 68.98118811892346,75.41920189917437 69.19504950498231,75.34933516033925 69.72970297071151,75.27946841125959 69.94356435653754,75.27946841125959 70.1039603962563,75.27946841125959 70.42475247546099,75.2096016521682 71.01287128753029,75.27946841125959 71.22673267358914,75.4890686274739 71.49405940622091,75.55893534549978 72.08217821782455,75.62880205351394 72.34950495045632,75.69866875116713 72.61683168355376,75.69866875116713 73.15148514858447,75.55893534549978 73.41881188121624,75.4890686274739 73.84653465379961,75.41920189917437 74.06039603962563,75.41920189917437 74.38118811906315,75.34933516033925 74.91584158455953,75.34933516033925 75.12970297038555,75.34933516033925 75.45049504959024,75.41920189917437 75.66435643588193,75.41920189917437 75.87821782217361,75.41920189917437 76.03861386142671,75.4890686274739 76.41287128743716,75.4890686274739 76.62673267349601,75.4890686274739 77.10792079218663,75.4890686274739 77.3752475248184,75.4890686274739 77.64257425768301,75.4890686274739 77.85643564374186,75.4890686274739 78.17722772294655,75.4890686274739 78.49801980215125,75.41920189917437 79.08613861422054,75.4890686274739 79.40693069319241,75.55893534549978 79.62079207948409,75.62880205351394 80.20891089132056,75.62880205351394 80.85049504972994,75.62880205351394 81.0643564357888,75.69866875116713 81.27821782208048,75.69866875116713 81.59900990105234,75.90826878268854 81.86633663391694,75.97813543924713 82.18712871312164,75.97813543924713 82.45445544575341,76.04800208570668 83.14950495096855,76.11786872168886 83.36336633679457,76.11786872168886 83.57722772308625,76.11786872168886 83.79108910891227,76.04800208570668 84.00495049520396,76.04800208570668 84.21881188149564,75.97813543924713 84.43267326755449,75.97813543924713 84.64653465384617,75.90826878268854 85.23465346568264,75.83840211571078 85.7158415846061,75.83840211571078 85.98316831700504,75.83840211571078 86.25049504963681,75.90826878268854 86.51782178273425,75.90826878268854 86.8920792080462,75.97813543924713 87.42673267354257,75.97813543924713 87.74752475274727,75.97813543924713 88.06831683171913,75.97813543924713 88.33564356481656,75.97813543924713 88.54950495064259,76.04800208570668 88.76336633693427,75.97813543924713 88.92376237665303,75.97813543924713 89.35148514877073,75.97813543924713 89.56534653482959,75.90826878268854 89.77920792088844,75.83840211571078 89.9396039606072,75.76853543843026 90.15346534689888,75.69866875116713 90.79504950507544,75.69866875116713 91.00891089136712,75.76853543843026 91.22277227742597,75.83840211571078 91.43663366348483,75.83840211571078 91.65049504977651,75.90826878268854 92.18514851504005,75.90826878268854 92.39900990133174,75.90826878268854 92.66633663396351,75.76853543843026 93.41485148528591,75.76853543843026 93.62871287157759,75.76853543843026 93.94950495078228,75.76853543843026 94.27029702998698,75.83840211571078 94.59108910919167,75.83840211571078 94.91188118839636,75.90826878268854 95.01881188130938,75.83840211571078 94.7514851486776,75.83840211571078 94.53762376261875,75.76853543843026 94.3237623765599,75.69866875116713 94.0564356436953,75.62880205351394 93.46831683209166,75.4890686274739 92.9871287131682,75.62880205351394 92.77326732710935,75.69866875116713 92.55940594081767,75.69866875116713 92.13168316846713,75.76853543843026 91.9712871289812,75.76853543843026 91.70396039634943,75.69866875116713 91.5435643568635,75.69866875116713 91.22277227742597,75.69866875116713 91.00891089136712,75.62880205351394 90.68811881216243,75.62880205351394 90.42079207953066,75.62880205351394 89.9396039606072,75.55893534549978 89.67227722797543,75.55893534549978 89.40495049534366,75.55893534549978 89.1910891092848,75.55893534549978 88.92376237665303,75.55893534549978 88.70990099036135,75.55893534549978 88.12178217852488,75.41920189917437 87.74752475274727,75.27946841125959 87.53366336668842,75.2096016521682 87.10594059433788,75.2096016521682 86.78514851513319,75.2096016521682 86.51782178273425,75.2096016521682 86.30396039620973,75.2096016521682 86.09009901015088,75.27946841125959 85.8227722775191,75.27946841125959 85.55544554488733,75.34933516033925 84.96732673305087,75.34933516033925 84.64653465384617,75.34933516033925 84.32574257464148,75.27946841125959 84.00495049520396,75.27946841125959 83.68415841599926,75.2096016521682 83.41683168336749,75.13973488274496 83.14950495096855,75.13973488274496 82.61485148523934,75.13973488274496 82.29405940603465,75.2096016521682 82.0801980199758,75.2096016521682 81.8128712871112,75.27946841125959 81.49207920813933,75.34933516033925 81.17128712893464,75.41920189917437 80.52970297052525,75.4890686274739 80.26237623812631,75.4890686274739 80.04851485183463,75.41920189917437 79.78118811897002,75.41920189917437 79.3000000002794,75.4890686274739 78.60495049529709,75.4890686274739 78.23069306951948,75.34933516033925 78.07029703003354,75.34933516033925 77.3752475248184,75.27946841125959 77.16138613875955,75.27946841125959 76.84059405955486,75.27946841125959 76.57326732715592,75.2096016521682 76.41287128743716,75.2096016521682 76.1990099013783,75.13973488274496 75.9316831685137,75.13973488274496 75.71782178245485,75.13973488274496 75.23663366376422,75.2096016521682 74.96930693066679,75.2096016521682 74.595049505122,75.2096016521682 74.27425742591731,75.2096016521682 74.06039603962563,75.2096016521682 73.84653465379961,75.2096016521682 73.63267326750793,75.13973488274496 73.20495049515739,75.13973488274496 72.8841584159527,75.13973488274496 72.67029702989385,75.2096016521682 72.34950495045632,75.2096016521682 72.08217821782455,75.2096016521682 71.8683168317657,75.2096016521682 71.60099009913392,75.13973488274496 71.06633663387038,75.13973488274496 70.63861386175267,75.13973488274496 70.31782178254798,75.06986810298986 70.1039603962563,75.06986810298986 69.78316831681877,75.06986810298986 69.56930693075992,75.00000131307752 68.98118811892346,75.00000131307752 68.71386138629168,75.00000131307752 68.50000000023283,75.00000131307752 68.12574257445522,75.06986810298986 67.96534653473645,75.13973488274496 67.43069306970574,75.06986810298986 67.27029702998698,75.06986810298986 67.0564356436953,75.06986810298986 66.84257425786927,75.06986810298986 66.62871287157759,75.00000131307752 66.25445544556715,74.93013451277511 65.93366336659528,74.86026770208264 65.3990099010989,75.00000131307752 65.07821782189421,75.06986810298986 64.86435643583536,75.13973488274496 64.65049504977651,75.2096016521682 64.49009901005775,75.27946841125959 64.22277227742597,75.27946841125959 64.00891089113429,75.34933516033925 63.474257425870746,75.34933516033925 63.260396039811894,75.34933516033925 63.04653465375304,75.34933516033925 62.88613861403428,75.27946841125959 62.56534653506242,75.27946841125959 62.351485148770735,75.27946841125959 62.13762376224622,75.27946841125959 61.9237623764202,75.27946841125959 61.389108911156654,75.27946841125959 61.12178217829205,75.2096016521682 60.80099009908736,75.13973488274496 60.480198020115495,75.13973488274496 60.10594059433788,75.06986810298986 59.78514851513319,75.13973488274496 59.517821782501414,75.13973488274496 59.19702970329672,75.13973488274496 58.87623762409203,75.2096016521682 58.662376237567514,75.2096016521682 58.02079207939096,75.27946841125959 57.806930693332106,75.27946841125959 57.48613861412741,75.2096016521682 57.16534653468989,75.13973488274496 56.844554455485195,75.13973488274496 56.20297029730864,75.00000131307752 56.042574257357046,75.00000131307752 55.72178217815235,74.93013451277511 55.45445544575341,75.00000131307752 55.080198019975796,75.00000131307752 54.43861386156641,75.06986810298986 53.957425742642954,75.06986810298986 53.63663366343826,75.00000131307752 53.42277227761224,74.93013451277511 53.155445544747636,74.93013451277511 52.995049505028874,75.00000131307752 52.67425742582418,75.00000131307752 52.40693069319241,75.00000131307752 51.81881188135594,75.00000131307752 51.55148514872417,75.00000131307752 51.33762376266532,75.00000131307752 50.74950495059602,74.93013451277511 50.375247525051236,74.86026770208264 50.05445544561371,74.79040088146576 49.84059405955486,74.79040088146576 49.62673267349601,74.79040088146576 49.252475247718394,74.72053405060433 48.71782178222202,74.65066720935283 48.343564356677234,74.58080035774037 48.18316831695847,74.58080035774037 47.96930693089962,74.58080035774037 47.70198019803502,74.58080035774037 47.1673267330043,74.58080035774037 46.84653465356678,74.65066720935283 46.472277228021994,74.58080035774037 46.20495049515739,74.58080035774037 45.93762376252562,74.65066720935283 45.40297029702924,74.72053405060433 44.86831683199853,75.00000131307752 44.547524752561,74.93013451277511 44.28019801992923,74.93013451277511 44.06633663387038,74.86026770208264 43.745544554432854,74.86026770208264 43.47821782203391,74.86026770208264 42.890099010197446,74.86026770208264 42.729702970478684,74.79040088146576 42.40891089127399,74.79040088146576 42.0881188120693,74.79040088146576 41.874257425777614,74.86026770208264 41.50000000023283,74.86026770208264 41.33960396051407,74.93013451277511 40.7514851486776,74.93013451277511 40.43069306947291,74.93013451277511 40.216831683181226,74.93013451277511 39.84257425740361,74.86026770208264 39.62871287157759,74.86026770208264 39.30792079214007,74.86026770208264 38.61287128739059,74.79040088146576 38.39900990109891,74.79040088146576 38.07821782166138,74.79040088146576 37.81089108926244,74.72053405060433 37.16930693062022,74.72053405060433 36.90198019798845,74.79040088146576 36.313861386384815,74.79040088146576 35.99306930694729,74.72053405060433 35.6722772277426,74.72053405060433 35.351485148537904,74.72053405060433 35.03069306933321,74.72053405060433 34.81683168327436,74.65066720935283 34.12178217829205,74.58080035774037 33.85445544566028,74.65066720935283 33.587128713028505,74.65066720935283 33.37326732673682,74.65066720935283 33.1594059409108,74.65066720935283 32.99900990095921,74.65066720935283 32.678217821987346,74.72053405060433 32.35742574278265,74.72053405060433 31.929702970432118,74.72053405060433 31.662376237800345,74.72053405060433 31.28811881202273,74.72053405060433 30.967326732818037,74.65066720935283 30.700000000186265,74.72053405060433 30.37920792098157,74.72053405060433 30.058415841776878,74.72053405060433 29.47029702994041,74.72053405060433 29.149504950502887,74.72053405060433 28.882178218103945,74.72053405060433 28.614851485472172,74.72053405060433 28.240594059461728,74.65066720935283 28.080198019975796,74.65066720935283 27.919801980257034,74.65066720935283 27.171287128934637,74.72053405060433 26.850495049497113,74.72053405060433 26.47623762395233,74.79040088146576 26.155445544514805,74.79040088146576 25.62079207925126,74.72053405060433 25.300000000046566,74.65066720935283 24.979207920841873,74.58080035774037 24.65841584140435,74.58080035774037 24.284158416092396,74.58080035774037 24.070297029567882,74.58080035774037 23.6960396040231,74.65066720935283 23.482178217731416,74.65066720935283 23.268316831672564,74.65066720935283 22.78712871298194,74.58080035774037 22.145544554572552,74.58080035774037 21.771287128562108,74.58080035774037 21.503960396163166,74.65066720935283 21.02277227723971,74.51093349599978 20.808910891180858,74.44106662386912 20.541584158316255,74.44106662386912 20.274257425684482,74.44106662386912 19.95346534647979,74.44106662386912 19.632673267507926,74.51093349599978 18.991089108865708,74.51093349599978 18.670297029893845,74.51093349599978 18.402970297029242,74.51093349599978 18.13564356439747,74.58080035774037 17.814851485192776,74.58080035774037 17.547524752561003,74.58080035774037 17.17326732678339,74.79040088146576 17.440594059647992,74.79040088146576 17.654455445474014,74.79040088146576 17.975247524911538,74.86026770208264 18.24257425754331,74.93013451277511 18.777227722806856,75.00000131307752 19.04455445543863,75.00000131307752 19.418811881449074,74.93013451277511 19.739603960653767,74.93013451277511 19.899999999906868,74.93013451277511 20.16732673277147,75.00000131307752 20.808910891180858,75.00000131307752 21.12970297038555,75.06986810298986 21.343564356444404,75.06986810298986 21.557425742736086,75.13973488274496 22.145544554572552,75.00000131307752 22.466336633777246,75.06986810298986 22.626732673496008,75.06986810298986 22.84059405955486,75.06986810298986 23.054455445613712,75.06986810298986 23.268316831672564,75.06986810298986 23.58910891111009,75.06986810298986 24.284158416092396,75.13973488274496 24.60495049529709,75.13973488274496 24.925742574501783,75.13973488274496 25.086138613987714,75.13973488274496 25.460396039532498,75.06986810298986 25.62079207925126,75.06986810298986 26.262376237660646,75.13973488274496 26.52970297029242,75.06986810298986 26.850495049497113,75.06986810298986 27.224752475507557,75.00000131307752 27.385148514760658,75.00000131307752 27.59900990105234,75.00000131307752 27.812871287344024,74.93013451277511 28.34752475237474,74.93013451277511 28.721782178152353,74.93013451277511 29.042574257589877,74.93013451277511 29.41683168313466,74.93013451277511 29.630693069426343,74.86026770208264 30.27227722806856,74.86026770208264 30.593069307040423,74.93013451277511 30.860396039905027,74.93013451277511 31.18118811887689,74.93013451277511 31.501980198081583,74.86026770208264 32.19702970306389,74.86026770208264 32.517821782268584,74.93013451277511 32.83861386170611,75.00000131307752 33.05247524776496,75.00000131307752 33.37326732673682,75.06986810298986 33.694059405941516,75.06986810298986 33.96138613857329,75.06986810298986 34.549504950642586,75.06986810298986 34.81683168327436,75.13973488274496 35.13762376271188,75.13973488274496 35.404950495110825,75.13973488274496 35.72574257454835,75.13973488274496 36.04653465375304,75.13973488274496 36.313861386384815,75.06986810298986 36.90198019798845,75.2096016521682 37.16930693062022,75.13973488274496 37.49009900982492,75.13973488274496 37.75742574268952,75.2096016521682 37.91782178240828,75.2096016521682 38.238613861612976,75.2096016521682 38.88019801978953,75.27946841125959 39.200990099227056,75.27946841125959 39.52178217843175,75.27946841125959 39.7356435644906,75.27946841125959 40.109900990268216,75.2096016521682 40.32376237632707,75.2096016521682 40.911881188396364,75.13973488274496 41.50000000023283,75.13973488274496 41.71386138629168,75.2096016521682 41.981188119156286,75.27946841125959 42.56930693075992,75.27946841125959 42.783168317051604,75.27946841125959 43.15742574259639,75.27946841125959 43.31782178231515,75.27946841125959 43.692079208325595,75.27946841125959 44.01287128706463,75.27946841125959 44.654455445706844,75.27946841125959 44.97524752491154,75.2096016521682 45.24257425731048,75.06986810298986 45.830693069146946,75.00000131307752 46.1514851488173,75.00000131307752 46.472277228021994,75.00000131307752 46.79306930699386,75.00000131307752 47.1673267330043,75.00000131307752 47.75544554484077,75.06986810298986 48.02277227723971,75.06986810298986 48.23663366353139,75.06986810298986 48.55742574296892,75.13973488274496 48.87821782217361,75.2096016521682 49.19900990114547,75.2096016521682 49.89405940612778,75.13973488274496 50.16138613875955,75.13973488274496 50.321782178245485,75.13973488274496 50.69603960425593,75.13973488274496 51.01683168322779,75.13973488274496 51.33762376266532,75.13973488274496 51.60495049529709,75.13973488274496 52.246534653706476,75.13973488274496 52.56732673291117,75.13973488274496 52.88811881188303,75.2096016521682 53.208910891320556,75.2096016521682 53.52970297052525,75.2096016521682 53.79702970292419,75.13973488274496 54.3316831686534,75.13973488274496 54.54554455471225,75.13973488274496 54.812871287344024,75.2096016521682 55.080198019975796,75.27946841125959 55.29405940603465,75.27946841125959 55.50792079232633,75.27946841125959 55.72178217815235,75.2096016521682 55.989108911016956,75.2096016521682 56.36336633679457,75.13973488274496 56.68415841599926,75.00000131307752 56.951485148631036,74.86026770208264 57.48613861412741,74.79040088146576 57.806930693332106,74.79040088146576 58.18118811910972,74.86026770208264 58.50198019808158,74.86026770208264 58.87623762409203,74.93013451277511 59.14356435649097,75.00000131307752 59.731683168327436,75.06986810298986 60.05247524753213,75.13973488274496 60.3198019801639,75.13973488274496 60.587128713028505,75.13973488274496 60.9079207922332,75.13973488274496 61.1752475250978,75.2096016521682 61.81683168350719,75.27946841125959 62.13762376224622,75.34933516033925 62.458415841916576,75.34933516033925 62.77920792112127,75.41920189917437 63.10000000032596,75.41920189917437 63.367326732724905,75.41920189917437 63.63465346558951,75.41920189917437 64.16930693085305,75.34933516033925 64.38316831714474,75.27946841125959 64.5435643568635,75.27946841125959 64.86435643583536,75.27946841125959 65.18514851527289,75.27946841125959 65.50594059424475,75.27946841125959 65.77326732687652,75.27946841125959 66.30792079214007,75.13973488274496 66.57524752477184,75.13973488274496 66.94950495078228,75.2096016521682 67.10990099026822,75.2096016521682 67.43069306970574,75.27946841125959 67.80495049525052,75.34933516033925 68.0188118815422,75.34933516033925 68.71386138629168,75.41920189917437 69.03465346549638,75.41920189917437 69.35544554470107,75.41920189917437 69.94356435653754,75.34933516033925 70.26435643574223,75.41920189917437 70.53168316883966,75.4890686274739 70.74554455466568,75.4890686274739 71.01287128753029,75.4890686274739 71.33366336650215,75.4890686274739 71.97524752491154,75.4890686274739 72.24257425754331,75.4890686274739 72.61683168355376,75.4890686274739 72.77722772280686,75.41920189917437 73.15148514858447,75.41920189917437 73.73960396042094,75.4890686274739 74.06039603962563,75.4890686274739 74.27425742591731,75.4890686274739 74.595049505122,75.4890686274739 74.96930693066679,75.55893534549978 75.29009901010431,75.62880205351394 75.98514851531945,75.69866875116713 76.14554455457255,75.69866875116713 76.51980198035017,75.76853543843026 76.78712871298194,75.76853543843026 77.10792079218663,75.76853543843026 77.2683168319054,75.76853543843026 77.85643564374186,75.76853543843026 78.07029703003354,75.69866875116713 78.39108910923824,75.69866875116713 78.65841584187001,75.69866875116713 78.92574257426895,75.76853543843026 79.3000000002794,75.76853543843026 79.99504950502887,75.83840211571078 80.26237623812631,75.90826878268854 80.42277227737941,75.90826878268854 80.69009901024401,75.97813543924713 81.0108910894487,75.97813543924713 81.33168316842057,76.04800208570668 81.97326732682995,76.04800208570668 82.3475247528404,75.97813543924713 82.6683168320451,75.97813543924713 82.98910891101696,75.97813543924713 83.36336633679457,75.97813543924713 83.89801980229095,75.97813543924713 84.27227722783573,75.97813543924713 84.59306930704042,76.04800208570668 84.96732673305087,76.11786872168886 85.12772277276963,76.11786872168886 85.7158415846061,76.11786872168886 85.98316831700504,76.04800208570668 86.35742574278265,75.97813543924713 86.5712871288415,75.97813543924713 86.78514851513319,75.90826878268854 87.10594059433788,75.76853543843026 87.42673267354257,75.69866875116713 87.96138613880612,75.69866875116713 88.54950495064259,75.90826878268854 88.87029702984728,75.90826878268854 89.40495049534366,75.76853543843026 89.56534653482959,75.69866875116713 89.77920792088844,75.62880205351394 89.99306930718012,75.55893534549978 90.20693069323897,75.4890686274739 90.63465346558951,75.4890686274739 91.00891089136712,75.41920189917437 91.38316831714474,75.4890686274739 91.65049504977651,75.41920189917437 92.23861386161298,75.41920189917437 92.55940594081767,75.62880205351394 92.71980198053643,75.69866875116713 93.20099009922706,75.76853543843026 93.46831683209166,75.83840211571078 93.7356435644906,75.83840211571078 94.0564356436953,75.83840211571078 94.43069306947291,75.90826878268854 95.01881188130938,75.97813543924713 94.91188118839636,75.69866875116713 94.69801980233751,75.69866875116713 94.10990099050105,75.62880205351394 93.84257425763644,75.55893534549978 93.52178217843175,75.41920189917437 93.25445544556715,75.41920189917437 93.04059405974112,75.34933516033925 92.66633663396351,75.34933516033925 91.9712871289812,75.2096016521682 91.81089108949527,75.2096016521682 91.5435643568635,75.13973488274496 91.22277227742597,75.06986810298986 90.58118811901659,75.13973488274496 90.3673267327249,75.2096016521682 90.04653465352021,75.27946841125959 89.40495049534366,75.2096016521682 89.08415841613896,75.06986810298986 88.87029702984728,75.00000131307752 88.38910891115665,75.00000131307752 87.85445544589311,75.2096016521682 87.58712871279567,75.2096016521682 87.26633663405664,75.2096016521682 86.99900990119204,75.2096016521682 86.83861386147328,75.27946841125959 86.4643564359285,75.34933516033925 85.8762376238592,75.13973488274496 85.66237623780034,75.06986810298986 85.18118811887689,75.00000131307752 84.96732673305087,75.00000131307752 84.75346534675919,75.06986810298986 84.53960396070033,75.06986810298986 84.32574257464148,75.13973488274496 84.1118811883498,75.2096016521682 83.84455445571803,75.27946841125959 83.630693069892,75.27946841125959 83.36336633679457,75.27946841125959 82.88217821787111,75.34933516033925 82.6683168320451,75.34933516033925 82.45445544575341,75.41920189917437 81.97326732682995,75.34933516033925 81.70594059419818,75.34933516033925 81.43861386179924,75.27946841125959 81.11782178236172,75.27946841125959 80.90396039630286,75.27946841125959 80.58316831686534,75.2096016521682 80.31584158423357,75.2096016521682 79.7277227723971,75.06986810298986 79.51386138633825,75.06986810298986 79.3000000002794,75.06986810298986 78.9792079210747,75.00000131307752 78.65841584187001,74.93013451277511 78.01683168346062,74.93013451277511 77.74950495059602,75.00000131307752 77.42871287139133,75.06986810298986 77.10792079218663,75.06986810298986 76.73366336664185,75.06986810298986 76.57326732715592,75.06986810298986 76.14554455457255,75.13973488274496 75.98514851531945,75.2096016521682 75.610891089309,75.2096016521682 75.34356435667723,75.2096016521682 75.02277227747254,75.27946841125959 74.38118811906315,75.27946841125959 74.16732673253864,75.27946841125959 73.84653465379961,75.27946841125959 73.47227722778916,75.27946841125959 73.15148514858447,75.27946841125959 72.83069306937978,75.2096016521682 72.18910891097039,75.13973488274496 71.8683168317657,75.00000131307752 71.54752475279383,74.93013451277511 70.90594059438445,74.93013451277511 70.63861386175267,75.00000131307752 70.42475247546099,75.06986810298986 70.26435643574223,75.13973488274496 69.99702970311046,75.2096016521682 69.67623762390576,75.27946841125959 69.46237623784691,75.27946841125959 68.92772277258337,75.27946841125959 68.60693069314584,75.27946841125959 68.28613861394115,75.2096016521682 68.0722772278823,75.13973488274496 67.37722772289999,75.06986810298986 66.94950495078228,75.13973488274496 66.7356435644906,75.13973488274496 66.57524752477184,75.2096016521682 66.36138613894582,75.2096016521682 66.14752475265414,75.2096016521682 65.93366336659528,75.27946841125959 65.23861386161298,75.27946841125959 65.02475247555412,75.27946841125959 64.70396039634943,75.27946841125959 64.43663366348483,75.27946841125959 64.11584158428013,75.2096016521682 63.79504950530827,75.13973488274496 63.52772277244367,75.13973488274496 62.99306930718012,75.13973488274496 62.83267326746136,75.13973488274496 62.61881188116968,75.13973488274496 61.97722772322595,75.06986810298986 61.76336633693427,75.00000131307752 61.1752475250978,75.06986810298986 60.9079207922332,75.06986810298986 60.587128713028505,75.06986810298986 60.10594059433788,75.06986810298986 59.67821782222018,75.2096016521682 59.35742574278265,75.06986810298986 59.09009901015088,75.00000131307752 58.769306930713356,75.06986810298986 58.50198019808158,75.06986810298986 58.1277227725368,75.06986810298986 57.96732673281804,75.06986810298986 57.37920792098157,75.13973488274496 57.05841584177688,75.13973488274496 56.898019802290946,75.13973488274496 56.5237623762805,75.13973488274496 56.20297029730864,75.06986810298986 55.935643564676866,75.00000131307752 55.66831683181226,75.00000131307752 54.973267327062786,75.06986810298986 54.65247524762526,75.13973488274496 54.43861386156641,75.13973488274496 54.22475247527473,75.13973488274496 53.903960396302864,75.13973488274496 53.52970297052525,75.13973488274496 52.941584158688784,75.06986810298986 52.62079207948409,75.13973488274496 52.300000000046566,75.06986810298986 52.032673267647624,75.06986810298986 51.76534653501585,75.06986810298986 51.39108910900541,75.06986810298986 51.123762376606464,75.06986810298986 50.48217821796425,75.06986810298986 50.10792079218663,75.06986810298986 49.73366336664185,75.06986810298986 49.412871287204325,75.06986810298986 49.14554455480538,75.06986810298986 48.503960396163166,75.06986810298986 48.12970297015272,75.06986810298986 47.96930693089962,75.06986810298986 47.595049505122006,75.06986810298986 47.27425742591731,75.00000131307752 46.686138614080846,75.06986810298986 46.472277228021994,75.06986810298986 46.20495049515739,75.2096016521682 45.723762376233935,75.2096016521682 45.40297029702924,75.13973488274496 45.02871287125163,75.13973488274496 44.761386138852686,75.13973488274496 44.33366336650215,75.13973488274496 44.17326732701622,75.13973488274496 43.63861386151984,75.13973488274496 43.31782178231515,75.13973488274496 42.943564356537536,75.13973488274496 42.56930693075992,75.13973488274496 42.30198019836098,75.06986810298986 41.981188119156286,75.06986810298986 41.39306930708699,74.93013451277511 41.17920792102814,74.72053405060433 40.53762376238592,74.65066720935283 40.216831683181226,74.65066720935283 39.84257425740361,74.65066720935283 39.62871287157759,74.65066720935283 39.30792079214007,74.65066720935283 38.98712871293537,74.72053405060433 38.34554455475882,74.72053405060433 38.02475247532129,74.79040088146576 37.70396039634943,74.86026770208264 37.43663366348483,74.93013451277511 36.90198019798845,74.86026770208264 36.63465346535668,74.86026770208264 36.367326732724905,74.79040088146576 36.0999999998603,74.72053405060433 35.83267326746136,74.65066720935283 35.511881188256666,74.58080035774037 35.19108910881914,74.58080035774037 34.602970297215506,74.51093349599978 34.22871287143789,74.58080035774037 33.9079207922332,74.58080035774037 33.694059405941516,74.51093349599978 33.42673267330974,74.51093349599978 33.1594059409108,74.51093349599978 33.05247524776496,74.44106662386912 32.624752475181594,74.51093349599978 32.25049504986964,74.51093349599978 31.929702970432118,74.65066720935283 31.555445544654503,74.72053405060433 31.39504950493574,74.79040088146576 30.967326732818037,74.79040088146576 30.806930693099275,74.79040088146576 30.593069307040423,74.79040088146576 30.37920792098157,74.79040088146576 30.21881188126281,74.86026770208264 29.844554455485195,74.86026770208264 29.5237623762805,74.86026770208264 29.202970296842977,74.93013451277511 28.561386138899252,74.93013451277511 28.187128712888807,74.93013451277511 27.866336633684114,74.86026770208264 27.54554455447942,74.86026770208264 27.224752475507557,74.79040088146576 26.957425742642954,74.72053405060433 26.42277227737941,74.65066720935283 26.048514851368964,74.72053405060433 25.7277227723971,74.72053405060433 25.460396039532498,74.72053405060433 25.139603960560635,74.65066720935283 24.498019802151248,74.72053405060433 24.337623762432486,74.72053405060433 24.070297029567882,74.72053405060433 23.74950495036319,74.72053405060433 23.375247524818406,74.65066720935283 23.107920792186633,74.72053405060433 22.680198019603267,74.65066720935283 22.519801980350167,74.58080035774037 21.87821782194078,74.65066720935283 21.610891089309007,74.65066720935283 21.343564356444404,74.72053405060433 21.236633663531393,74.72053405060433 20.9158415843267,74.72053405060433 20.648514851694927,74.79040088146576 20.16732673277147,74.93013451277511 19.846534653566778,74.86026770208264 19.632673267507926,74.79040088146576 19.3118811880704,74.79040088146576 19.09801980201155,74.72053405060433 18.509900989942253,74.79040088146576 18.2960396038834,74.79040088146576 18.08217821782455,74.79040088146576 17.761386138852686,74.86026770208264 17.494059405988082,74.86026770208264 17.22673267335631,74.86026770208264 17.012871287297457,74.86026770208264 16.37128712888807,74.86026770208264 16.585148514946923,74.79040088146576 16.905940593918785,74.86026770208264 17.22673267335631,74.86026770208264 17.547524752561003,74.93013451277511 17.868316831765696,75.00000131307752 18.456435643602163,75.13973488274496 18.991089108865708,75.34933516033925 19.3118811880704,75.34933516033925 19.686138613848016,75.34933516033925 20.00693069305271,75.41920189917437 20.541584158316255,75.4890686274739 20.755445544607937,75.41920189917437 21.07623762381263,75.27946841125959 21.397029703017324,75.2096016521682 21.664356435649097,75.13973488274496 22.305940594291314,75.13973488274496 22.573267326690257,75.13973488274496 22.84059405955486,75.13973488274496 23.214851485332474,75.2096016521682 23.535643564537168,75.2096016521682 24.230693069286644,75.2096016521682 24.551485148491338,75.13973488274496 24.925742574501783,75.13973488274496 25.246534653706476,75.13973488274496 25.51386138633825,75.13973488274496 26.208910891320556,75.27946841125959 26.52970297029242,75.27946841125959 26.797029702924192,75.27946841125959 27.117821782128885,75.27946841125959 27.43861386133358,75.27946841125959 28.080198019975796,75.13973488274496 28.34752475237474,75.06986810298986 28.775247524958104,75.00000131307752 29.47029702994041,75.13973488274496 29.737623762339354,75.2096016521682 30.058415841776878,75.27946841125959 30.32574257417582,75.27946841125959 30.913861386245117,75.27946841125959 31.28811881202273,75.27946841125959 31.608910890994594,75.27946841125959 32.25049504986964,75.06986810298986 32.78514851490036,75.00000131307752 33.10594059410505,75.06986810298986 33.42673267330974,75.13973488274496 33.694059405941516,75.2096016521682 34.01485148514621,75.2096016521682 34.335643564583734,75.2096016521682 34.97722772299312,75.27946841125959 35.29801980196498,75.27946841125959 35.56534653482959,75.27946841125959 35.88613861403428,75.27946841125959 36.20693069300614,75.27946841125959 36.474257425870746,75.27946841125959 36.6881188119296,75.27946841125959 37.329702970338985,75.2096016521682 37.97128712874837,75.2096016521682 38.292079207953066,75.27946841125959 38.61287128739059,75.27946841125959 38.93366336659528,75.2096016521682 39.254455445567146,75.27946841125959 39.89603960420936,75.27946841125959 40.163366336841136,75.2096016521682 40.43069306947291,75.13973488274496 40.7514851486776,75.06986810298986 41.28613861394115,75.13973488274496 41.66039603971876,75.2096016521682 41.981188119156286,75.2096016521682 42.67623762390576,75.13973488274496 43.05049504968338,75.00000131307752 43.37128712888807,74.93013451277511 44.06633663387038,75.00000131307752 44.22673267335631,75.00000131307752 44.600990099133924,75.00000131307752 44.86831683199853,74.93013451277511 45.13564356439747,74.93013451277511 45.40297029702924,74.86026770208264 45.93762376252562,74.86026770208264 46.20495049515739,74.79040088146576 46.525742574362084,74.86026770208264 46.84653465356678,74.86026770208264 47.434653465403244,74.93013451277511 47.75544554484077,75.00000131307752 48.12970297015272,75.06986810298986 48.77128712879494,75.00000131307752 49.359405940864235,74.93013451277511 49.68019802006893,74.93013451277511 50.00099009904079,74.93013451277511 50.321782178245485,75.00000131307752 50.64257425768301,75.00000131307752 50.90990099008195,75.00000131307752 51.55148514872417,75.06986810298986 51.87227722792886,75.06986810298986 52.246534653706476,75.06986810298986 52.56732673291117,75.06986810298986 52.88811881188303,75.06986810298986 53.208910891320556,75.06986810298986 53.85049504972994,75.13973488274496 54.17128712893464,75.06986810298986 54.43861386156641,75.06986810298986 54.70594059419818,75.06986810298986 55.080198019975796,75.13973488274496 55.77524752472527,75.13973488274496 55.989108911016956,75.13973488274496 56.25643564364873,75.2096016521682 56.63069306965917,75.13973488274496 56.951485148631036,75.13973488274496 57.27227722783573,75.13973488274496 57.806930693332106,75.27946841125959 58.39504950516857,75.34933516033925 58.608910891460255,75.27946841125959 58.92970297019929,75.27946841125959 59.25049504963681,75.27946841125959 59.517821782501414,75.27946841125959 59.89207920827903,75.27946841125959 60.587128713028505,75.27946841125959 60.85445544566028,75.2096016521682 61.442574257496744,75.27946841125959 61.76336633693427,75.34933516033925 62.08415841613896,75.34933516033925 62.77920792112127,75.27946841125959 63.10000000032596,75.27946841125959 63.420792079297826,75.34933516033925 63.74158415850252,75.41920189917437 64.06237623794004,75.41920189917437 64.43663366348483,75.4890686274739 64.70396039634943,75.55893534549978 65.2920792081859,75.4890686274739 65.50594059424475,75.4890686274739 65.7198019803036,75.4890686274739 65.9871287131682,75.41920189917437 66.20099009922706,75.34933516033925 66.46831683185883,75.34933516033925 67.0564356436953,75.41920189917437 67.43069306970574,75.41920189917437 67.69801980210468,75.34933516033925 68.0722772278823,75.34933516033925 68.39306930685416,75.34933516033925 69.0881188120693,75.4890686274739 69.46237623784691,75.55893534549978 70.05049504991621,75.62880205351394 70.37128712888807,75.55893534549978 70.69207920809276,75.4890686274739 71.33366336650215,75.41920189917437 71.65445544570684,75.4890686274739 71.92178217833862,75.62880205351394 72.29603960434906,75.76853543843026 72.563366336748,75.76853543843026 73.15148514858447,75.83840211571078 73.36534653487615,75.83840211571078 73.63267326750793,75.83840211571078 73.95346534671262,75.76853543843026 74.22079207934439,75.69866875116713 74.70198019826785,75.69866875116713 74.96930693066679,75.76853543843026 75.1831683171913,75.83840211571078 75.87821782217361,75.83840211571078 76.14554455457255,75.76853543843026 76.46633663401008,75.69866875116713 76.68019802006893,75.62880205351394 77.00099009927362,75.55893534549978 77.64257425768301,75.55893534549978 77.90990099031478,75.55893534549978 78.33762376243249,75.69866875116713 78.65841584187001,75.69866875116713 78.87227722816169,75.69866875116713 79.19306930713356,75.69866875116713 79.83465346554294,75.76853543843026 80.20891089132056,75.83840211571078 80.52970297052525,75.83840211571078 80.85049504972994,75.83840211571078 81.11782178236172,75.83840211571078 81.43861386179924,75.90826878268854 82.02673267340288,75.97813543924713 82.3475247528404,75.97813543924713 82.72178217838518,75.97813543924713 83.04257425758988,75.90826878268854 83.36336633679457,75.90826878268854 83.95148514863104,75.90826878268854 84.27227722783573,75.90826878268854 84.59306930704042,75.83840211571078 84.91386138647795,75.76853543843026 85.23465346568264,75.69866875116713 85.8762376238592,75.69866875116713 86.19702970306389,75.69866875116713 86.51782178273425,75.62880205351394 86.83861386147328,75.69866875116713 87.42673267354257,75.76853543843026 87.74752475274727,75.83840211571078 88.01485148537904,75.90826878268854 88.65643564402126,75.83840211571078 88.92376237665303,75.83840211571078 89.35148514877073,75.83840211571078 89.61881188140251,75.90826878268854 89.83267326769419,75.83840211571078 90.20693069323897,75.90826878268854 90.52772277244367,75.90826878268854 90.84851485164836,75.97813543924713 91.38316831714474,76.04800208570668 91.65049504977651,75.97813543924713 91.91782178240828,75.97813543924713 92.50594059447758,75.97813543924713 92.82673267344944,75.83840211571078 93.09405940608121,75.69866875116713 93.57524752500467,75.62880205351394 93.36138613894582,75.4890686274739 92.9871287131682,75.2096016521682 92.29207920841873,75.13973488274496 92.07821782212704,75.13973488274496 91.86435643560253,75.2096016521682 91.65049504977651,75.2096016521682 91.38316831714474,75.2096016521682 91.16930693085305,75.2096016521682 90.63465346558951,75.2096016521682 90.3673267327249,75.27946841125959 90.04653465352021,75.27946841125959 89.67227722797543,75.27946841125959 89.45841584168375,75.34933516033925 88.81683168350719,75.34933516033925 88.4960396043025,75.34933516033925 88.22871287143789,75.34933516033925 87.90792079246603,75.34933516033925 87.58712871279567,75.27946841125959 86.8920792080462,75.2096016521682 86.67821782198735,75.2096016521682 86.41089108935557,75.34933516033925 86.09009901015088,75.34933516033925 85.55544554488733,75.27946841125959 85.12772277276963,75.27946841125959 84.91386138647795,75.27946841125959 84.64653465384617,75.27946841125959 84.48613861412741,75.34933516033925 84.1118811883498,75.34933516033925 83.41683168336749,75.41920189917437 83.20297029707581,75.41920189917437 82.98910891101696,75.41920189917437 82.72178217838518,75.34933516033925 82.3475247528404,75.34933516033925 82.13366336654872,75.34933516033925 81.59900990105234,75.34933516033925 81.43861386179924,75.34933516033925 81.17128712893464,75.34933516033925 80.95742574287578,75.34933516033925 80.74356435681693,75.34933516033925 80.47623762395233,75.34933516033925 80.20891089132056,75.41920189917437 79.62079207948409,75.27946841125959 79.35346534685232,75.27946841125959 78.9792079210747,75.27946841125959 78.76534653478302,75.27946841125959 78.55148514872417,75.27946841125959 78.33762376243249,75.2096016521682 77.64257425768301,75.2096016521682 77.42871287139133,75.13973488274496 76.84059405955486,75.2096016521682 76.62673267349601,75.2096016521682 76.2524752477184,75.27946841125959 76.03861386142671,75.34933516033925 75.87821782217361,75.34933516033925 75.503960396396,75.27946841125959 75.29009901010431,75.27946841125959 74.75544554484077,75.27946841125959 74.54158415854909,75.27946841125959 74.32772277249023,75.27946841125959 73.95346534671262,75.27946841125959 73.579207920935,75.27946841125959 73.41881188121624,75.27946841125959 72.67029702989385,75.27946841125959 72.456435643835,75.27946841125959 72.1356435646303,75.27946841125959 71.76138613861986,75.2096016521682 71.44059405964799,75.2096016521682 71.17326732701622,75.2096016521682 70.90594059438445,75.27946841125959 70.21089108940214,75.2096016521682 69.94356435653754,75.2096016521682 69.35544554470107,75.13973488274496 68.7673267328646,75.06986810298986 68.44653465365991,75.06986810298986 68.12574257445522,75.13973488274496 67.91188118816353,75.2096016521682 67.16336633684114,75.13973488274496 66.84257425786927,75.06986810298986 66.46831683185883,75.00000131307752 65.82673267344944,75.06986810298986 65.50594059424475,75.06986810298986 65.18514851527289,75.06986810298986 64.91782178217545,75.06986810298986 64.65049504977651,75.13973488274496 64.38316831714474,75.2096016521682 63.79504950530827,75.27946841125959 63.420792079297826,75.2096016521682 63.10000000032596,75.13973488274496 62.77920792112127,75.13973488274496 62.458415841916576,75.06986810298986 61.9237623764202,75.06986810298986 61.602970297215506,75.06986810298986 61.335643564583734,75.00000131307752 61.06831683195196,75.06986810298986 60.80099009908736,75.06986810298986 60.533663366455585,75.06986810298986 60.26633663382381,75.06986810298986 59.731683168327436,75.06986810298986 59.41089108935557,75.06986810298986 59.09009901015088,75.00000131307752 58.769306930713356,75.00000131307752 58.44851485150866,75.00000131307752 58.18118811910972,75.00000131307752 57.593069307273254,75.00000131307752 57.21881188149564,75.00000131307752 56.898019802290946,75.00000131307752 56.57722772285342,75.00000131307752 56.25643564364873,75.00000131307752 55.935643564676866,75.00000131307752 55.40099009941332,75.00000131307752 55.18712871288881,74.93013451277511 54.973267327062786,74.93013451277511 54.65247524762526,74.86026770208264 54.27821782184765,74.79040088146576 54.117821782361716,74.79040088146576 53.69009901001118,74.79040088146576 53.36930693080649,74.86026770208264 53.101980198174715,74.93013451277511 52.83465346531011,74.93013451277511 52.51386138633825,75.00000131307752 52.193069307133555,75.00000131307752 51.49801980191842,75.06986810298986 51.230693069519475,75.06986810298986 50.90990099008195,75.06986810298986 50.58910891087726,75.06986810298986 49.89405940612778,75.06986810298986 49.57326732692309,75.13973488274496 49.19900990114547,75.13973488274496 48.87821782217361,75.13973488274496 48.55742574296892,75.13973488274496 47.9158415843267,75.2096016521682 47.595049505122006,75.2096016521682 47.27425742591731,75.2096016521682 46.95346534671262,75.13973488274496 46.632673267275095,75.13973488274496 46.3118811880704,75.2096016521682 45.723762376233935,75.2096016521682 45.40297029702924,75.2096016521682 45.08217821805738,75.27946841125959 44.814851485192776,75.27946841125959 44.547524752561,75.2096016521682 44.22673267335631,75.2096016521682 43.692079208325595,75.13973488274496 43.531683168374,75.13973488274496 43.31782178231515,75.06986810298986 42.99702970311046,75.06986810298986 42.67623762390576,75.00000131307752 42.30198019836098,74.93013451277511 41.76732673263177,74.93013451277511 41.50000000023283,74.93013451277511 41.23267326760106,74.93013451277511 40.911881188396364,75.00000131307752 40.69801980210468,75.00000131307752 40.48415841604583,75.06986810298986 40.27029702975415,75.13973488274496 39.62871287157759,75.06986810298986 39.30792079214007,75.00000131307752 39.094059406081215,75.00000131307752 38.88019801978953,75.00000131307752 38.66633663396351,75.00000131307752 38.45247524767183,75.00000131307752 38.131683168467134,75.00000131307752 37.91782178240828,75.00000131307752 37.222772277425975,74.86026770208264 37.00891089136712,74.86026770208264 36.474257425870746,74.93013451277511 36.20693069300614,74.93013451277511 35.61881188140251,75.00000131307752 35.08415841590613,74.79040088146576 34.549504950642586,74.72053405060433 34.28217821777798,74.79040088146576 34.06831683195196,74.79040088146576 33.85445544566028,74.79040088146576 33.64059405983426,74.79040088146576 33.3198019801639,74.86026770208264 33.10594059410505,74.86026770208264 32.73168316856027,74.86026770208264 32.41089108912274,74.93013451277511 32.19702970306389,75.00000131307752 31.769306930946186,74.93013451277511 31.501980198081583,74.93013451277511 31.074257425731048,74.79040088146576 30.913861386245117,74.79040088146576 30.593069307040423,74.79040088146576 30.27227722806856,74.72053405060433 29.737623762339354,74.72053405060433 29.41683168313466,74.72053405060433 29.096039603929967,74.72053405060433 28.775247524958104,74.65066720935283 28.561386138899252,74.65066720935283 28.187128712888807,74.72053405060433 27.59900990105234,74.65066720935283 27.385148514760658,74.65066720935283 27.171287128934637,74.58080035774037 26.63663366343826,74.65066720935283 26.315841584233567,74.72053405060433 26.101980198174715,74.79040088146576 25.406930693425238,74.72053405060433 25.086138613987714,74.58080035774037 24.498019802151248,74.58080035774037 24.123762376373634,74.58080035774037 23.90990099008195,74.58080035774037 23.58910891111009,74.58080035774037 23.268316831672564,74.58080035774037 23.054455445613712,74.51093349599978 22.84059405955486,74.51093349599978 22.305940594291314,74.65066720935283 21.82475247536786,74.86026770208264 21.610891089309007,74.79040088146576 21.503960396163166,74.79040088146576 21.236633663531393,74.79040088146576 21.02277227723971,74.79040088146576 20.755445544607937,74.79040088146576 20.434653465403244,74.86026770208264 19.686138613848016,74.93013451277511 19.1514851488173,74.93013451277511 18.830693069612607,74.93013451277511 18.563366336748004,74.93013451277511 18.24257425754331,74.93013451277511 17.868316831765696,74.86026770208264 17.600990099133924,74.86026770208264 17.012871287297457,74.79040088146576 16.799009901005775,74.79040088146576 16.638613861519843,74.72053405060433 16.2643564355094,74.72053405060433 15.890099009964615,74.72053405060433 15.51584158395417,74.79040088146576 14.927722772350535,74.72053405060433 14.5,74.65066720935283 14.713861386291683,74.58080035774037 14.927722772350535,74.65066720935283 15.462376237846911,74.79040088146576 15.729702970245853,74.86026770208264 16.2643564355094,74.93013451277511 16.47821782180108,74.93013451277511 16.692079207859933,74.93013451277511 17.066336633637547,75.00000131307752 17.28019801992923,75.06986810298986 17.707920792046934,75.06986810298986 18.08217821782455,75.00000131307752 18.24257425754331,74.93013451277511 18.456435643602163,74.93013451277511 18.830693069612607,74.86026770208264 19.04455445543863,74.86026770208264 19.686138613848016,74.86026770208264 20.06039603962563,74.86026770208264 20.327722772490233,74.93013451277511 20.648514851694927,74.93013451277511 21.02277227723971,74.93013451277511 21.771287128562108,74.93013451277511 21.93168316828087,74.93013451277511 22.252475247485563,74.93013451277511 22.573267326690257,74.93013451277511 22.78712871298194,74.93013451277511 23.000990099273622,75.00000131307752 23.64257425745018,75.00000131307752 23.80297029716894,75.00000131307752 24.016831683227792,75.00000131307752 24.230693069286644,75.00000131307752 24.551485148491338,75.13973488274496 25.246534653706476,75.13973488274496 25.51386138633825,75.06986810298986 25.78118811897002,75.13973488274496 26.048514851368964,75.13973488274496 26.369306930806488,75.13973488274496 26.69009901001118,75.13973488274496 27.385148514760658,75.06986810298986 27.705940594198182,75.00000131307752 28.026732673402876,75.00000131307752 28.34752475237474,75.00000131307752 28.614851485472172,75.00000131307752 28.935643564211205,75.00000131307752 29.47029702994041,75.00000131307752 29.737623762339354,74.93013451277511 30.058415841776878,74.93013451277511 30.37920792098157,74.86026770208264 30.700000000186265,74.86026770208264 31.074257425731048,74.86026770208264 31.662376237800345,74.86026770208264 31.98316831700504,74.86026770208264 32.25049504986964,74.79040088146576 32.517821782268584,74.79040088146576 33.10594059410505,75.00000131307752 33.694059405941516,75.06986810298986 33.9079207922332,75.00000131307752 34.12178217829205,75.00000131307752 34.496039604069665,75.00000131307752 34.65643564378843,75.00000131307752 35.19108910881914,75.00000131307752 35.56534653482959,75.06986810298986 36.15346534666605,75.00000131307752 36.474257425870746,74.93013451277511 36.74158415850252,74.86026770208264 37.00891089136712,74.93013451277511 37.329702970338985,74.93013451277511 37.70396039634943,74.86026770208264 37.97128712874837,74.79040088146576 38.61287128739059,74.93013451277511 39.254455445567146,75.00000131307752 39.62871287157759,75.00000131307752 39.94950495054945,75.06986810298986 40.27029702975415,75.13973488274496 40.59108910919167,75.13973488274496 40.911881188396364,75.2096016521682 41.39306930708699,75.13973488274496 41.76732673263177,75.2096016521682 42.0881188120693,75.2096016521682 42.40891089127399,75.27946841125959 42.67623762390576,75.27946841125959 43.21089108940214,75.27946841125959 43.58514851494692,75.27946841125959 43.95940594072454,75.27946841125959 44.28019801992923,75.27946841125959 44.49405940598808,75.2096016521682 45.02871287125163,75.27946841125959 45.40297029702924,75.34933516033925 45.723762376233935,75.34933516033925 45.99108910909854,75.34933516033925 46.3118811880704,75.34933516033925 46.95346534671262,75.34933516033925 47.27425742591731,75.34933516033925 47.595049505122006,75.27946841125959 47.80891089094803,75.27946841125959 48.02277227723971,75.27946841125959 48.397029703250155,75.2096016521682 48.98514851508662,75.2096016521682 49.305940594058484,75.13973488274496 49.68019802006893,75.06986810298986 49.89405940612778,75.06986810298986 50.42871287162416,75.06986810298986 50.74950495059602,75.13973488274496 51.07029702980071,75.2096016521682 51.284158416092396,75.13973488274496 51.60495049529709,75.2096016521682 52.193069307133555,75.13973488274496 52.40693069319241,75.13973488274496 52.56732673291117,75.13973488274496 52.941584158688784,75.2096016521682 53.155445544747636,75.2096016521682 53.36930693080649,75.27946841125959 53.63663366343826,75.27946841125959 53.85049504972994,75.2096016521682 54.17128712893464,75.2096016521682 54.866336633684114,75.2096016521682 55.18712871288881,75.2096016521682 55.56138613866642,75.27946841125959 55.77524752472527,75.27946841125959 55.989108911016956,75.34933516033925 56.14950495073572,75.34933516033925 56.36336633679457,75.34933516033925 56.63069306965917,75.41920189917437 57.27227722783573,75.27946841125959 57.53960396070033,75.34933516033925 57.806930693332106,75.27946841125959 58.07425742596388,75.27946841125959 58.23465346544981,75.2096016521682 58.44851485150866,75.2096016521682 58.662376237567514,75.2096016521682 59.30396039620973,75.13973488274496 59.571287129074335,75.13973488274496 59.89207920827903,75.2096016521682 60.26633663382381,75.2096016521682 60.426732673542574,75.13973488274496 60.9079207922332,75.27946841125959 61.06831683195196,75.34933516033925 61.22871287120506,75.4890686274739 61.9237623764202,75.69866875116713 62.298019802197814,75.69866875116713 62.458415841916576,75.69866875116713 62.83267326746136,75.62880205351394 63.10000000032596,75.62880205351394 63.367326732724905,75.62880205351394 63.6881188119296,75.69866875116713 64.2762376239989,75.62880205351394 64.49009901005775,75.55893534549978 64.75742574268952,75.4890686274739 65.07821782189421,75.55893534549978 65.45247524790466,75.55893534549978 65.61287128739059,75.55893534549978 66.14752475265414,75.62880205351394 66.78910891106352,75.62880205351394 67.3237623765599,75.69866875116713 67.7514851486776,75.69866875116713 67.96534653473645,75.62880205351394 68.1792079207953,75.55893534549978 68.3396039607469,75.4890686274739 68.50000000023283,75.41920189917437 68.87425742577761,75.27946841125959 69.24851485178806,75.27946841125959 69.46237623784691,75.27946841125959 69.94356435653754,75.41920189917437 70.47821782203391,75.55893534549978 71.1198019804433,75.55893534549978 71.44059405964799,75.62880205351394 71.7079207925126,75.69866875116713 71.97524752491154,75.76853543843026 72.24257425754331,75.76853543843026 72.563366336748,75.83840211571078 73.31188118830323,75.83840211571078 73.47227722778916,75.69866875116713 73.79306930722669,75.62880205351394 74.00693069328554,75.55893534549978 74.32772277249023,75.55893534549978 75.02277227747254,75.4890686274739 75.34356435667723,75.55893534549978 75.66435643588193,75.55893534549978 75.9316831685137,75.62880205351394 76.1990099013783,75.69866875116713 76.51980198035017,75.83840211571078 76.94752475246787,75.69866875116713 77.16138613875955,75.62880205351394 77.69603960425593,75.55893534549978 78.23069306951948,75.55893534549978 78.60495049529709,75.41920189917437 78.9792079210747,75.4890686274739 79.35346534685232,75.4890686274739 79.56732673291117,75.4890686274739 79.94158415868878,75.4890686274739 80.15544554474764,75.4890686274739 80.79702970315702,75.4890686274739 81.11782178236172,75.34933516033925 81.33168316842057,75.27946841125959 81.86633663391694,75.34933516033925 82.24059405969456,75.41920189917437 82.40099009918049,75.4890686274739 82.61485148523934,75.4890686274739 82.93564356467687,75.55893534549978 83.52376237651333,75.55893534549978 83.84455445571803,75.55893534549978 84.16534653492272,75.55893534549978 84.53960396070033,75.62880205351394 84.86039603990503,75.62880205351394 85.18118811887689,75.62880205351394 85.50198019808158,75.62880205351394 86.09009901015088,75.76853543843026 86.62475247564726,75.69866875116713 86.94554455485195,75.55893534549978 87.15940594067797,75.4890686274739 87.58712871279567,75.4890686274739 87.74752475274727,75.55893534549978 87.96138613880612,75.62880205351394 88.28217821801081,75.76853543843026 88.4960396043025,75.83840211571078 89.13762376271188,75.90826878268854 89.29801980243064,75.90826878268854 89.88613861426711,75.97813543924713 90.10000000032596,75.90826878268854 90.31386138638481,75.83840211571078 90.47425742610358,75.83840211571078 90.79504950507544,75.83840211571078 91.06237623794004,75.69866875116713 91.65049504977651,75.62880205351394 92.02475247555412,75.69866875116713 92.34554455452599,75.62880205351394 92.66633663396351,75.62880205351394 92.93366336659528,75.62880205351394 93.14752475265414,75.62880205351394 93.7356435644906,75.69866875116713 94.0564356436953,75.76853543843026 94.43069306947291,75.76853543843026 94.7514851486776,75.83840211571078 95.12574257445522,75.83840211571078 95.5,75.76853543843026 95.28613861417398,75.69866875116713 95.12574257445522,75.69866875116713 94.91188118839636,75.69866875116713 94.7514851486776,75.62880205351394 94.48415841604583,75.62880205351394 94.27029702998698,75.55893534549978 94.10990099050105,75.55893534549978 93.89603960420936,75.55893534549978 93.25445544556715,75.4890686274739 92.8801980202552,75.4890686274739 92.66633663396351,75.4890686274739 92.50594059447758,75.4890686274739 92.07821782212704,75.4890686274739 91.81089108949527,75.4890686274739 91.22277227742597,75.62880205351394 90.90198019845411,75.69866875116713 90.58118811901659,75.76853543843026 90.3673267327249,75.83840211571078 89.9396039606072,75.90826878268854 89.61881188140251,75.83840211571078 89.29801980243064,75.76853543843026 89.03069306956604,75.76853543843026 88.81683168350719,75.76853543843026 88.4960396043025,75.76853543843026 88.28217821801081,75.76853543843026 87.80099009932019,75.69866875116713 87.37326732696965,75.76853543843026 87.15940594067797,75.83840211571078 86.94554455485195,75.83840211571078 86.35742574278265,75.83840211571078 85.98316831700504,75.83840211571078 85.66237623780034,75.76853543843026 85.34158415859565,75.69866875116713 84.96732673305087,75.62880205351394 84.32574257464148,75.4890686274739 84.00495049520396,75.4890686274739 83.73762376280501,75.55893534549978 83.52376237651333,75.55893534549978 83.30990099045448,75.55893534549978 83.14950495096855,75.55893534549978 82.7752475249581,75.55893534549978 82.13366336654872,75.62880205351394 81.8128712871112,75.62880205351394 81.59900990105234,75.62880205351394 81.38514851499349,75.62880205351394 81.17128712893464,75.62880205351394 80.90396039630286,75.62880205351394 80.26237623812631,75.4890686274739 79.94158415868878,75.41920189917437 79.67425742582418,75.34933516033925 79.19306930713356,75.34933516033925 78.9792079210747,75.34933516033925 78.65841584187001,75.41920189917437 78.33762376243249,75.4890686274739 78.12376237660646,75.55893534549978 77.85643564374186,75.62880205351394 77.2683168319054,75.62880205351394 77.05445544584654,75.4890686274739" stroke="#4dd2ff" stroke-linecap="round" stroke-linejoin="round" stroke-width="0.5"><title>2017-03-31 10.3km</title></polyline><polyline fill="none" points="127.78993453644216,76.63898464734666 129.22410666011274,99.58108702092431 137.82913939096034,109.41336616850458 157.19046304002404,109.41336616850458 167.94675395451486,96.30365391238593 162.92715152725577,48.5463899821043 142.49019878730178,38.71392347966321 130.65827878192067,44.80069202580489 122.77033211104572,61.65629823761992 128.14847756549716,104.26312848413363 149.3025163654238,110.81797500490211 167.58821092359722,97.24006371502765 160.77589334361255,49.014601917006075 139.98039757460356,39.18213685718365 123.48741817101836,55.56956180976704 127.43139150552452,104.26312848413363 153.9635757636279,110.81797500490211 166.87112486176193,93.02621744154021 160.77589334361255,50.88744897232391 142.49019878730178,37.30928293778561 130.29973574914038,43.864266850519925 124.56304726190865,56.50598355359398 126.71430544368923,100.04929147544317 146.07562909275293,112.22258322453126 164.71986667998135,98.644677905133 160.77589334361255,50.419237312162295 148.94397333823144,36.841069287387654 138.90476848371327,36.841069287387654 123.84596120007336,58.37882621726021 127.78993453644216,102.39031272288412 147.50980121456087,111.75438055419363 165.078409710899,98.644677905133 158.98317819088697,46.67354155308567 137.4705963600427,38.245710033457726 123.84596120007336,57.44240502291359 128.86556362733245,105.19953595497645 141.4145696964115,112.22258322453126 155.03920485638082,110.34977212874219 164.71986667998135,93.96262820367701 158.62463515996933,46.67354155308567 137.82913939096034,38.71392347966321 122.05324604734778,55.10135083505884 126.35576241463423,102.39031272288412 146.79271515458822,113.15898836124688 164.3613236490637,99.58108702092431 161.85152243450284,52.292083544423804 142.13165575638413,34.968213993590325 124.204504230991,55.56956180976704 128.14847756549716,101.9221086113248 147.15125818550587,112.69078582618386 165.43695274181664,99.11288249748759 159.34172122366726,49.014601917006075 141.4145696964115,36.37285556620918 123.48741817101836,56.50598355359398 127.07284847460687,99.11288249748759 135.31933817639947,109.41336616850458 150.01960242912173,111.28617781517096 166.51258183270693,95.83544890861958 162.21006546728313,50.88744897232391 138.54622545279562,35.436427920591086 123.84596120007336,54.164928678423166 127.78993453644216,100.5174958629068 137.4705963600427,110.34977212874219 151.45377455092967,112.69078582618386 166.51258183270693,95.83544890861958 161.1344363745302,49.482813784852624 137.4705963600427,36.841069287387654 125.2801333218813,51.82387208985165 128.50702059827745,100.98570018005557 151.45377455092967,112.22258322453126 166.87112486176193,96.30365391238593 162.21006546728313,50.419237312162295 139.6218545436859,34.968213993590325 123.84596120007336,54.63313979143277 127.43139150552452,100.98570018005557 149.3025163654238,113.15898836124688 165.078409710899,98.17647324339487 158.26609213091433,46.20532927336171 138.54622545279562,35.904641777975485 123.84596120007336,54.164928678423166 127.43139150552452,101.45390443038195 146.07562909275293,113.15898836124688 165.43695274181664,101.45390443038195 162.92715152725577,51.35566056566313 157.54900606907904,43.396054160781205 139.26331151276827,39.18213685718365 123.84596120007336,55.56956180976704 128.50702059827745,102.39031272288412 138.18768242187798,111.75438055419363 152.1708606109023,112.69078582618386 166.87112486176193,95.83544890861958 161.85152243450284,49.951025581685826 152.52940364181995,40.11856340500526 138.54622545279562,37.77749651996419 123.84596120007336,53.69671749812551 127.78993453644216,100.04929147544317 150.01960242912173,113.15898836124688 160.77589334361255,106.13594314898364 165.43695274181664,93.02621744154021 159.34172122366726,47.60996590415016 135.67788120917976,37.77749651996419 124.56304726190865,56.97419432224706 131.73390787281096,106.60414664354175 149.3025163654238,112.69078582618386 165.078409710899,97.24006371502765 159.70026425272226,46.20532927336171 139.26331151276827,36.37285556620918 124.204504230991,55.10135083505884 129.58264968916774,101.45390443038195 148.22688727639616,112.22258322453126 157.19046304002404,109.41336616850458 164.71986667998135,96.30365391238593 159.70026425272226,46.20532927336171 139.6218545436859,37.77749651996419 124.56304726190865,55.10135083505884 128.14847756549716,105.19953595497645 148.94397333823144,113.6271908255294 164.3613236490637,96.77185884770006 159.70026425272226,46.67354155308567 150.01960242912173,37.30928293778561 135.31933817639947,37.77749651996419 123.84596120007336,58.37882621726021 128.50702059827745,104.26312848413363 138.90476848371327,113.15898836124688 151.8123175818473,112.22258322453126 165.078409710899,92.55801195790991 160.77589334361255,46.67354155308567 139.98039757460356,39.18213685718365 124.56304726190865,54.164928678423166 127.07284847460687,104.7313322541304 151.8123175818473,113.15898836124688 165.43695274181664,93.49442285695113 160.77589334361255,48.078177977353334 152.1708606109023,38.71392347966321 138.18768242187798,36.37285556620918 124.56304726190865,55.56956180976704 126.71430544368923,101.9221086113248 135.67788120917976,111.75438055419363 149.3025163654238,113.6271908255294 164.3613236490637,97.24006371502765 161.85152243450284,51.35566056566313 146.07562909275293,37.30928293778561 132.80953696370125,41.52320271031931 124.56304726190865,53.22850624960847 126.35576241463423,102.39031272288412 148.22688727639616,115.5 165.078409710899,93.96262820367701 159.70026425272226,46.20532927336171 139.6218545436859,37.30928293778561 123.84596120007336,54.164928678423166 127.07284847460687,100.98570018005557 136.03642423823476,111.28617781517096 149.6610593982041,112.69078582618386 165.078409710899,94.8990386929363 160.0588072836399,49.951025581685826 151.45377455092967,39.18213685718365 138.90476848371327,37.30928293778561 123.84596120007336,55.56956180976704 125.63867635466158,102.39031272288412 143.56582787819207,114.56359555153176 164.3613236490637,96.77185884770006 159.70026425272226,47.1417537627276 141.77311272732913,34.5 123.84596120007336,55.10135083505884 125.99721938371658,104.26312848413363 146.43417212180793,113.15898836124688 164.71986667998135,99.58108702092431 159.70026425272226,48.078177977353334 141.77311272732913,37.77749651996419 124.56304726190865,53.22850624960847 126.71430544368923,104.26312848413363 148.22688727639616,112.22258322453126 163.64423758909106,101.9221086113248 160.4173503126949,51.35566056566313 153.9635757636279,39.18213685718365 144.641456970945,36.841069287387654 131.73390787281096,41.991415676428005 123.84596120007336,54.164928678423166 124.204504230991,100.98570018005557 146.79271515458822,113.15898836124688 164.71986667998135,99.11288249748759 161.49297940544784,54.164928678423166 148.58543030545115,36.841069287387654 134.24370908550918,39.18213685718365 125.2801333218813,49.482813784852624 123.84596120007336,100.5174958629068 142.49019878730178,113.15898836124688 164.71986667998135,100.04929147544317 160.0588072836399,48.078177977353334 142.49019878730178,36.37285556620918 123.12887514010072,54.63313979143277 124.56304726190865,100.98570018005557 142.49019878730178,113.15898836124688 156.4733769800514,110.34977212874219 165.43695274181664,100.04929147544317 162.21006546728313,53.22850624960847 147.50980121456087,36.841069287387654 133.88516605645418,40.11856340500526 124.56304726190865,50.88744897232391 124.204504230991,100.5174958629068 148.22688727639616,110.34977212874219 164.71986667998135,97.24006371502765 161.85152243450284,51.82387208985165 143.56582787819207,35.436427920591086 130.65827878192067,40.58677657530643 124.56304726190865,53.22850624960847 127.07284847460687,103.32672074018046 147.15125818550587,112.69078582618386 165.43695274181664,100.04929147544317 162.21006546728313,50.419237312162295 143.56582787819207,37.77749651996419 131.01682181097567,43.396054160781205 123.84596120007336,56.50598355359398 126.35576241463423,101.9221086113248 149.3025163654238,112.22258322453126 165.79549577087164,98.644677905133 159.70026425272226,47.60996590415016 141.77311272732913,35.904641777975485 123.84596120007336,50.88744897232391 125.63867635466158,100.5174958629068 134.24370908550918,110.34977212874219 148.22688727639616,112.22258322453126 160.77589334361255,106.13594314898364 166.51258183270693,93.49442285695113 160.4173503126949,46.67354155308567 142.49019878730178,34.5 124.204504230991,54.164928678423166 127.43139150552452,100.98570018005557 145.00000000186265,113.15898836124688 158.62463515996933,108.00875671557151 166.15403880178928,95.83544890861958 159.70026425272226,47.60996590415016 142.13165575638413,34.5 124.204504230991,54.164928678423166 126.35576241463423,104.26312848413363 146.43417212180793,113.15898836124688 164.3613236490637,99.11288249748759 160.77589334361255,47.60996590415016 141.4145696964115,36.37285556620918 124.92159029096365,49.951025581685826 124.204504230991,100.04929147544317 142.49019878730178,112.69078582618386 156.1148339472711,109.88156918389723 164.71986667998135,98.644677905133 161.85152243450284,51.35566056566313 141.77311272732913,34.5 124.56304726190865,54.164928678423166 125.2801333218813,103.79492464731447 136.75351030007005,111.75438055419363 151.09523152001202,111.75438055419363 166.15403880178928,95.83544890861958 158.98317819088697,45.26890451135114 138.18768242187798,36.37285556620918 123.84596120007336,56.03777271555737 127.43139150552452,107.07235006941482 151.45377455092967,112.22258322453126 166.51258183270693,95.36724383477122 158.62463515996933,45.73711692704819 134.60225211642683,35.904641777975485" stroke="#4dd2ff" stroke-linecap="round" stroke-linejoin="round" stroke-width="0.5"><title>2016-03-13 17.3km</title></polyline><polyline fill="none" points="34.32402160577476,220.67004459071904 45.63729280419648,258.8774293512106 63.97259440086782,260.9151447401382 76.06609119661152,239.00964169204235 67.87372239865363,194.6887830379419 54.21977440081537,189.5943952521775 41.73616480268538,195.19822140503675 33.54379600659013,208.44359275721945 34.32402160577476,228.31155514298007 45.63729280419648,261.9340019884985 58.9011280015111,265.5 71.38473759777844,257.3491420240607 76.8463167976588,248.17940395581536 74.11552719771862,205.8964098796714 63.19236879982054,190.10383436689153 47.58785680308938,190.61327340686694 36.6646984051913,199.78316335519776 35.884472804144025,241.04736873158254 40.175713604316115,252.2548460843973 54.609887201339006,259.8962871953845 76.06609119661152,249.70769531349652 74.50563999824226,202.83978796075098 57.34067679941654,186.53775899740867 34.32402160577476,206.40584660531022 37.83503680489957,248.17940395581536 63.19236879982054,261.4245734019205 76.8463167976588,245.6322501974646 73.33530159853399,201.31147599383257 57.34067679941654,188.57551679899916 33.54379600659013,202.83978796075098 35.49436000548303,245.6322501974646 43.686728805303574,258.8774293512106 58.51101519912481,261.4245734019205 76.45620399713516,244.61338817351498 71.38473759777844,201.31147599383257 51.879097601398826,187.0471985596232 34.32402160577476,204.3680992568843 36.274585604667664,244.61338817351498 46.027405604720116,256.83971276693046 60.46157919988036,260.9151447401382 74.50563999824226,251.74541607988067 78.40676799602807,237.48134563001804 70.60451199859381,197.23597412975505 58.12090240046382,188.57551679899916 42.90650320239365,189.0849560617935 33.93390880525112,206.9152832555119 40.56582640297711,256.33028343319893 58.9011280015111,263.9717155850958 75.67597839608788,245.12281922250986 69.0440607983619,193.66990607837215 61.63191759958863,187.0471985596232 46.80763120390475,188.57551679899916 33.54379600659013,204.87753620557487 40.95593920350075,254.8019949886948 54.609887201339006,260.9151447401382 69.43417359702289,257.3491420240607 76.8463167976588,234.42475148942322 66.70338399894536,193.16046748682857 41.346052004024386,188.57551679899916 31.59323200583458,200.29260097676888 40.95593920350075,255.31142454477958 64.36270719952881,261.4245734019205 77.2364295963198,239.00964169204235 70.60451199859381,197.74541212501936 49.538420801982284,188.06607746030204 34.714134404435754,202.33035071357153 39.005375204607844,252.7642760137096 49.92853360250592,261.9340019884985 60.07146640121937,260.9151447401382 74.50563999824226,241.04736873158254 67.87372239865363,196.72653606138192 46.417518401518464,184.5 31.59323200583458,203.34922513458878 39.005375204607844,257.8585712085478 58.9011280015111,261.9340019884985 71.77485039643943,254.29256535694003 73.33530159853399,207.93415633169934 58.12090240046382,188.06607746030204 34.32402160577476,193.66990607837215 32.37345760688186,240.0285053604748 47.58785680308938,260.4057160052471 62.412143198773265,259.8962871953845 74.50563999824226,248.68883448280394 74.11552719771862,209.4624653866049 63.19236879982054,191.12271237256937 35.10424720309675,197.23597412975505 35.49436000548303,242.57566322456114 55.78022560104728,261.4245734019205 71.77485039643943,250.21712561673485 74.89575279690325,208.95302911032923 74.11552719771862,199.78316335519776 61.24180480092764,190.10383436689153 46.417518401518464,189.5943952521775 34.714134404435754,200.29260097676888 35.49436000548303,245.6322501974646 55.000000001862645,259.38685831055045 70.9946247972548,249.70769531349652 70.9946247972548,203.8586622334551 64.36270719952881,191.12271237256937 50.318646401166916,185.00943986093625 34.32402160577476,196.217097917106 37.44492400623858,251.74541607988067 56.17033839970827,260.9151447401382 74.50563999824226,247.1605426755268 74.11552719771862,206.40584660531022 63.97259440086782,189.5943952521775 47.58785680308938,189.5943952521775 35.49436000548303,199.27372565865517 35.49436000548303,240.0285053604748 46.80763120390475,261.4245734019205 62.412143198773265,260.9151447401382 73.33530159853399,250.21712561673485 71.77485039643943,207.93415633169934 64.75282000005245,193.66990607837215 50.7087592035532,188.57551679899916 33.153683204203844,199.78316335519776 33.153683204203844,235.95304889627732 45.63729280419648,258.8774293512106 56.17033839970827,261.9340019884985 71.77485039643943,251.23598600085825 71.77485039643943,210.99077377072535 59.291240798309445,188.57551679899916 35.49436000548303,190.61327340686694 34.714134404435754,243.08509457367472 41.346052004024386,257.3491420240607 60.851692000404,259.8962871953845 71.77485039643943,250.21712561673485 71.77485039643943,205.8964098796714 60.46157919988036,185.51887964690104 34.32402160577476,193.16046748682857 35.49436000548303,244.61338817351498 53.0494360011071,260.9151447401382 62.802255999296904,261.4245734019205 74.89575279690325,250.21712561673485 71.77485039643943,202.33035071357153 54.609887201339006,185.51887964690104 37.83503680489957,193.66990607837215 36.6646984051913,244.61338817351498 54.21977440081537,260.9151447401382 74.89575279690325,248.17940395581536 75.28586559742689,203.8586622334551 56.17033839970827,187.0471985596232 41.346052004024386,189.0849560617935 35.884472804144025,197.23597412975505 35.49436000548303,242.57566322456114 47.97796960361302,261.9340019884985 71.77485039643943,251.74541607988067 70.60451199859381,199.78316335519776 49.92853360250592,186.02831935952418 33.54379600659013,198.76428788900375 37.054811203852296,251.23598600085825 53.439548801630735,260.4057160052471 74.89575279690325,244.61338817351498 69.43417359702289,198.25485004321672 54.609887201339006,186.53775899740867 34.32402160577476,199.78316335519776 33.54379600659013,244.61338817351498 51.09887200221419,260.9151447401382 74.50563999824226,250.21712561673485 69.82428639754653,200.29260097676888 55.78022560104728,185.51887964690104 33.54379600659013,198.25485004321672 36.274585604667664,248.17940395581536 50.7087592035532,262.4434304998722 75.67597839608788,248.17940395581536 71.77485039643943,206.9152832555119 54.21977440081537,189.0849560617935 33.153683204203844,203.34922513458878 36.274585604667664,245.6322501974646 49.538420801982284,260.4057160052471 65.14293279871345,258.3680003180634 75.67597839608788,247.66997335269116 75.67597839608788,212.5190814808011 60.46157919988036,191.632151262369 35.49436000548303,195.70765969809145 31.59323200583458,216.08513019327074 42.90650320239365,256.33028343319893 66.70338399894536,258.3680003180634 75.67597839608788,234.934184032958 68.26383519917727,195.19822140503675 54.21977440081537,189.5943952521775 39.78560080379248,193.16046748682857 33.54379600659013,201.31147599383257 40.95593920350075,255.31142454477958 70.21439919993281,256.33028343319893 75.67597839608788,223.72665082733147 62.02203040011227,192.14159007789567 52.6593232024461,188.57551679899916 33.54379600659013,198.76428788900375 31.59323200583458,225.25495293689892 41.73616480268538,253.78313564974815 56.56045120023191,260.4057160052471 66.70338399894536,256.83971276693046 73.33530159853399,250.21712561673485 73.72541439719498,230.3492884535808 62.802255999296904,192.65102881961502 48.36808240041137,190.10383436689153 35.49436000548303,197.23597412975505 31.59323200583458,223.21721664001234 42.51639040373266,259.38685831055045 58.12090240046382,260.4057160052471 73.33530159853399,247.1605426755268 72.9451887961477,213.0285172346048 60.851692000404,191.12271237256937 45.24718000181019,191.632151262369 33.153683204203844,201.31147599383257 37.054811203852296,242.0662318014074 52.6593232024461,259.38685831055045 63.58248160034418,258.8774293512106 73.72541439719498,246.14168109744787 71.77485039643943,205.8964098796714 53.82966160029173,191.12271237256937 31.983344804495573,201.31147599383257 35.49436000548303,246.14168109744787 56.950564002618194,259.38685831055045 76.45620399713516,245.6322501974646 73.33530159853399,204.3680992568843 55.000000001862645,189.0849560617935 33.93390880525112,200.80203852243721 36.274585604667664,248.17940395581536 50.7087592035532,259.8962871953845 73.33530159853399,248.17940395581536 73.72541439719498,204.3680992568843 55.78022560104728,188.57551679899916 34.32402160577476,198.25485004321672" stroke="#4dd2ff" stroke-linecap="round" stroke-linejoin="round" stroke-width="0.5"><title>2015-08-19 13.2km</title></polyline><polyline fill="none" points="104.5,224.78782807383686 115.23493975959718,254.52360823960043 123.04216867499053,258.7715519287158 135.40361445769668,254.94840288884006 141.58433734998107,243.9037217751611 140.9337349385023,222.66383210150525 131.82530120387673,199.29977367189713 119.78915662690997,194.20213589188643 111.98192770965397,198.02536506694742 107.75301204808056,213.74303202121519 115.88554216735065,254.52360823960043 126.62048192694783,259.6211399207823 137.35542168654501,254.52360823960043 138.00602409616113,208.64541964582168 132.1506024096161,198.45016799704172 116.86144578270614,193.77733233920299 109.37951807118952,204.82220448064618 112.95783132500947,248.15168103133328 124.34337349422276,259.6211399207823 139.95783132500947,252.82442901981995 137.6807228922844,206.09661009558477 124.34337349422276,195.90134948003106 109.7048192769289,208.64541964582168 113.2831325288862,250.27565832412802 129.22289156727493,260.4707276613917 140.9337349385023,248.15168103133328 138.00602409616113,205.24700641492382 120.11445783264935,193.3525287231896 108.72891566343606,205.24700641492382 111.98192770965397,253.24922391888686 125.64457831345499,261.32031515450217 142.23493975959718,247.726885386277 138.00602409616113,206.09661009558477 120.11445783264935,195.05174281075597 108.40361445769668,206.09661009558477 112.63253012113273,251.55004395195283 125.96987951919436,260.8955214400776 140.9337349385023,252.82442901981995 138.65662650763988,206.09661009558477 126.2951807230711,195.90134948003106 108.72891566343606,204.39740248350427 109.05421686731279,238.3813654340338 114.58433734811842,254.52360823960043 122.39156626537442,259.1963459569961 141.2590361442417,250.70045359618962 141.90963855572045,217.56623541703448 130.8493975903839,199.72457641526125 118.16265060193837,199.72457641526125 108.72891566343606,208.22061821003444 109.7048192769289,241.77973981248215 121.41566265188158,258.346757840598 141.2590361442417,253.24922391888686 139.6325301192701,206.94621352804825 123.36746987886727,195.05174281075597 110.6807228922844,210.7694258915726 112.30722891539335,248.57647661399096 128.57228915579617,260.0459338221699 143.5361445788294,246.87729390780441 140.9337349385023,208.64541964582168 125.3192771077156,194.62693938286975 108.40361445769668,206.09661009558477 111.00602409616113,244.32851798040792 125.64457831345499,258.7715519287158 137.6807228922844,255.79799199989066 143.86144578270614,245.17811020603403 139.95783132500947,206.5214118435979 123.36746987886727,195.05174281075597 109.37951807118952,209.91982357995585 114.9096385538578,252.39963405998424 130.19879518076777,258.7715519287158 145.162650603801,244.32851798040792 140.60843373648822,206.09661009558477 131.17469879612327,196.75095590227284 117.83734939619899,194.62693938286975 107.75301204808056,207.79581671161577 113.2831325288862,251.12524880515411 126.62048192694783,259.1963459569961 143.21084337309003,248.15168103133328 141.90963855572045,209.0702210192103 125.96987951919436,194.62693938286975 110.6807228922844,206.09661009558477 111.98192770965397,248.57647661399096 120.11445783264935,258.346757840598 129.22289156727493,258.7715519287158 144.18674698844552,245.17811020603403 140.60843373648822,206.09661009558477 120.76506024040282,190.8037057244219 108.72891566343606,207.79581671161577 112.95783132500947,249.00127213448286 120.43975903466344,259.6211399207823 129.54819276928902,259.1963459569961 140.28313253074884,252.39963405998424 144.51204819232225,240.50534988730215 141.2590361442417,207.37101515033282 128.57228915579617,195.47654617694207 115.88554216735065,195.47654617694207 108.07831325381994,209.91982357995585 109.7048192769289,239.655756293796 119.46385542117059,257.4971694755368 131.17469879612327,258.7715519287158 142.23493975959718,251.12524880515411 143.86144578270614,222.66383210150525 137.6807228922844,201.42378676612861 125.96987951919436,195.90134948003106 113.93373493850231,198.8749708654359 107.75301204808056,210.34462476731278 109.7048192769289,240.50534988730215 118.48795180767775,259.1963459569961 130.8493975903839,258.7715519287158 140.9337349385023,250.70045359618962 144.18674698844552,222.66383210150525 141.2590361442417,204.82220448064618 133.1265060249716,195.90134948003106 121.41566265188158,194.62693938286975 110.6807228922844,202.27339156903327 108.72891566343606,232.00940273469314 117.83734939619899,256.6475808636751 125.96987951919436,260.4707276613917 140.9337349385023,253.67401875532232 143.5361445788294,229.03581534745172 136.05421686917543,198.02536506694742 116.53614457882941,197.17575901956297 110.6807228922844,214.5926332110539 116.53614457882941,256.6475808636751 135.40361445769668,257.07237520138733 144.83734939806163,235.40778458444402 139.95783132500947,202.27339156903327 125.96987951919436,192.92772504501045 114.25903614424169,195.90134948003106 111.3313253019005,242.20453633065335 119.13855421729386,257.07237520138733 138.98192771151662,251.97483903635293 145.162650603801,223.0886314199306 138.3313253019005,199.72457641526125 123.36746987886727,193.3525287231896 112.30722891539335,198.8749708654359 109.7048192769289,226.06222490919754 116.53614457882941,254.94840288884006 135.72891566343606,256.2227864630986 144.18674698844552,242.20453633065335 142.88554216735065,208.22061821003444 128.24698795191944,192.92772504501045 115.88554216735065,194.62693938286975 109.05421686731279,209.91982357995585 114.9096385538578,251.55004395195283 128.57228915579617,258.7715519287158 145.4879518058151,246.45249807555228 140.60843373648822,205.24700641492382 131.5,196.75095590227284 119.13855421729386,195.05174281075597 110.03012048080564,204.39740248350427 112.95783132500947,248.57647661399096 129.54819276928902,259.1963459569961 144.18674698844552,244.32851798040792 140.60843373648822,205.67180828633718 125.3192771077156,194.20213589188643 111.98192770965397,203.97260042559355 111.3313253019005,248.15168103133328 127.27108433656394,260.0459338221699 138.98192771151662,256.2227864630986 144.18674698844552,243.9037217751611 138.3313253019005,204.39740248350427 134.1024096403271,196.32615272258408 122.39156626537442,194.20213589188643 110.03012048080564,204.82220448064618 112.95783132500947,249.42606759350747 128.57228915579617,258.7715519287158 139.30722891539335,254.09881352842785 145.162650603801,243.47892550611869 139.6325301192701,204.39740248350427 126.2951807230711,195.05174281075597 110.6807228922844,207.37101515033282 111.98192770965397,249.00127213448286 119.46385542117059,258.346757840598 131.17469879612327,258.7715519287158 144.18674698844552,243.0541291765403 140.9337349385023,204.82220448064618 121.0903614461422,192.50292130582966 113.2831325288862,197.60056207492016 110.03012048080564,210.7694258915726 111.65662650577724,245.17811020603403 117.51204819232225,255.79799199989066 130.19879518076777,257.9219636898488 141.58433734998107,251.97483903635293 143.21084337309003,222.66383210150525 154.92168674618006,226.06222490919754 164.35542168654501,253.24922391888686 176.71686746925116,251.12524880515411 185.5,241.77973981248215 183.54819277115166,200.57418171549216 172.16265060193837,188.67968484549783 156.8734939750284,192.92772504501045 152.3192771077156,214.1678326476831 125.64457831345499,192.50292130582966 111.65662650577724,204.82220448064618" stroke="#4dd2ff" stroke-linecap="round" stroke-linejoin="round" stroke-width="0.5"><title>2015-07-23 11.5km</title></polyline></svg>