<?xml version="1.0" encoding="utf-8" ?>
<svg baseProfile="full" height="200mm" version="1.1" viewBox="0,0,200,200" width="200mm" xmlns="http://www.w3.org/2000/svg" xmlns:ev="http://www.w3.org/2001/xml-events" xmlns:xlink="http://www.w3.org/1999/xlink"><defs /><rect fill="#1a1a1a" height="200" width="200" x="0" y="0" /><text alignment-baseline="middle" fill="#e1ed5e" style="dominant-baseline: central; font-size:9.0px; font-family:Arial;" text-anchor="middle" x="100.0" y="100.0">2015</text><line stroke="#e1ed5e" stroke-width="0.3" x1="100.0" x2="100.0" y1="15.0" y2="10.0" /><path d="M 100.0 14.0 a86.0,86.0 0 0,1 42.46469731375804,11.215312516191453" fill="none" id="id1" stroke="none" /><text fill="#e1ed5e" style="font-size:6.75px; font-family:Arial;" text-anchor="middle"><textPath startOffset="22.20632615414155" xlink:href="#id1">January</textPath></text><line stroke="#e1ed5e" stroke-width="0.3" x1="143.23703022742887" x2="145.7803849466894" y1="26.818313649435467" y2="22.513508569990506" /><path d="M 143.74570117128098 25.957352633546478 a86.0,86.0 0 0,1 28.547481713284135,27.462654790039114" fill="none" id="id2" stroke="none" /><text fill="#e1ed5e" style="font-size:6.75px; font-family:Arial;" text-anchor="middle"><textPath startOffset="19.985693538727396" xlink:href="#id2">February</textPath></text><line stroke="#e1ed5e" stroke-width="0.3" x1="172.23445277983987" x2="176.4835382374775" y1="55.19839476539836" y2="52.563006222186495" /><path d="M 173.08426987136738 54.67131705675599 a86.0,86.0 0 0,1 12.851231095245387,41.99856678651699" fill="none" id="id3" stroke="none" /><text fill="#e1ed5e" style="font-size:6.75px; font-family:Arial;" text-anchor="middle"><textPath startOffset="22.20632615414155" xlink:href="#id3">March</textPath></text><line stroke="#e1ed5e" stroke-width="0.3" x1="184.98032266829074" x2="189.97916517819016" y1="98.17113171792111" y2="98.06355123074" /><path d="M 185.9800911702706 98.14961562048488 a86.0,86.0 0 0,1 -9.607161424134198,41.387399972396054" fill="none" id="id4" stroke="none" /><text fill="#e1ed5e" style="font-size:6.75px; font-family:Arial;" text-anchor="middle"><textPath startOffset="21.466115282336823" xlink:href="#id4">April</textPath></text><line stroke="#e1ed5e" stroke-width="0.3" x1="174.80103733775053" x2="179.2010983576182" y1="140.37084112569926" y2="142.7455964860345" /><path d="M 175.68104954172406 140.8457921977663 a86.0,86.0 0 0,1 -30.038265399797805,32.042727171017184" fill="none" id="id5" stroke="none" /><text fill="#e1ed5e" style="font-size:6.75px; font-family:Arial;" text-anchor="middle"><textPath startOffset="22.206326154141568" xlink:href="#id5">May</textPath></text><line stroke="#e1ed5e" stroke-width="0.3" x1="143.8653032363475" x2="146.44561519142675" y1="172.8068346515853" y2="177.08958963109032" /><path d="M 144.38136562736335 173.6633856474863 a86.0,86.0 0 0,1 -40.68145358897372,12.25698825130547" fill="none" id="id6" stroke="none" /><text fill="#e1ed5e" style="font-size:6.75px; font-family:Arial;" text-anchor="middle"><textPath startOffset="21.466115282336833" xlink:href="#id6">June</textPath></text><line stroke="#e1ed5e" stroke-width="0.3" x1="102.19456741930631" x2="102.32365962044197" y1="184.97166512339345" y2="189.96999836594603" /><path d="M 102.22038585953345 185.97133177190398 a86.0,86.0 0 0,1 -42.740103519485714,-10.115201625700543" fill="none" id="id7" stroke="none" /><text fill="#e1ed5e" style="font-size:6.75px; font-family:Arial;" text-anchor="middle"><textPath startOffset="22.20632615414155" xlink:href="#id7">July</textPath></text><path d="M 95.16358092515715 120.4354850818985 l -2.4243703139486894 10.243773878363884 a31.526750433548138,31.526750433548138 0 0,0 -0.5270172467817922,-0.12952801699305447 l 2.600340845473692 -10.200524603056799" fill="#ff0000" stroke="none" /><path d="M 93.76903079525671 120.05430185196036 l -6.415257914873486 20.6474329202452 a42.62110127422681,42.62110127422681 0 0,0 -0.698739781782553,-0.2237144126517321 l 6.769719041746979 -20.533945660933764" fill="#ffb410" stroke="none" /><path d="M 92.7421414339146 119.70592522655815 l -18.969442191180345 51.504228968536616 a75.88647682888727,75.88647682888727 0 0,0 -1.2218798884491215,-0.46201042170550805 l 19.853192300389747 -51.170070296724475" fill="#41ffcf" stroke="none" /><path d="M 91.07499286063937 119.00905698771935 l -14.042850595965609 29.909370724364702 a54.0419749710591,54.0419749710591 0 0,0 -0.8386473828245784,-0.4026017082733277 l 14.555610646790429 -29.66321473959181" fill="#a7ff21" stroke="none" /><line stroke="#e1ed5e" stroke-width="0.3" x1="58.666819895761336" x2="56.23545636021788" y1="174.27360380694188" y2="178.64263932499728" /><path d="M 58.180547188652646 175.14741091055294 a86.0,86.0 0 0,1 -31.652253787137756,-30.449443065178592" fill="none" id="id8" stroke="none" /><text fill="#e1ed5e" style="font-size:6.75px; font-family:Arial;" text-anchor="middle"><textPath startOffset="22.20632615414155" xlink:href="#id8">August</textPath></text><path d="M 89.4739219176387 118.17145234162733 l -21.679192424441045 37.4253742812182 a64.25096558766302,64.25096558766302 0 0,0 -0.9522364194443105,-0.5625980611316498 l 22.320196714913738 -37.0466576477928" fill="#30ff36" stroke="none" /><path d="M 88.24862548938628 117.40417183066458 l -24.073432457722895 35.653544584907124 a64.0198255664119,64.0198255664119 0 0,0 -0.9079935377428218,-0.6245262347866147 l 24.683582880088608 -35.23387756075541" fill="#30ff33" stroke="none" /><path d="M 87.36589467227662 116.77436683061367 l -9.112945875051627 12.099305257508826 a36.147242991250955,36.147242991250955 0 0,0 -0.49379074087405056,-0.3786176837848411 l 9.319865344419163 -11.940648231896619" fill="#ff4e07" stroke="none" /><path d="M 86.79598089348748 116.32954008644617 l -13.87459196518021 17.15884412547894 a43.06649573273306,43.06649573273306 0 0,0 -0.5724354960908804,-0.47107544207263724 l 14.167897589815778 -16.917473564549127" fill="#ffbb11" stroke="none" /><path d="M 85.44109423537348 115.13401014063109 l -12.259289828696527 12.743555016010387 a38.68299696177279,38.68299696177279 0 0,0 -0.4758930527295717,-0.46576151430622426 l 12.476832833801893 -12.53064339878159" fill="#ff770b" stroke="none" /><path d="M 84.67929136418377 114.36230785411684 l -45.9621259074487 43.086923562350485 a84.0,84.0 0 0,0 -0.9798143680170748,-1.0633949807946328 l 46.69698668346151 -42.28937732675451" fill="#4dd2ff" stroke="none" /><path d="M 83.50135304334701 112.99209946851258 l -33.15105089162225 26.105277105526575 a63.19570674814273,63.19570674814273 0 0,0 -0.6656409292273944,-0.8604306303266488 l 33.59549863806771 -25.530768481086675" fill="#36ff2e" stroke="none" /><path d="M 82.6465618267979 111.8261652097733 l -34.44417694652243 23.473303850142752 a62.68209830568123,62.68209830568123 0 0,0 -0.5999479574181545,-0.8968407943323367 l 34.84312800935132 -22.876926141604596" fill="#3cff2e" stroke="none" /><path d="M 82.24976979558568 111.22182372390057 l -36.24838988282654 22.916493862662094 a63.88486283124654,63.88486283124654 0 0,0 -0.579634540919751,-0.934555439618372 l 36.63748906341424 -22.289142091678457" fill="#2fff31" stroke="none" /><line stroke="#e1ed5e" stroke-width="0.3" x1="26.63291911575756" x2="22.317208475507996" y1="142.92168965132927" y2="145.44649492493687" /><path d="M 25.769776987707644 143.4266507060508 a86.0,86.0 0 0,1 -11.730757126820373,-40.83630448921669" fill="none" id="id9" stroke="none" /><text fill="#e1ed5e" style="font-size:6.75px; font-family:Arial;" text-anchor="middle"><textPath startOffset="21.46611528233685" xlink:href="#id9">September</textPath></text><path d="M 81.69416730710424 110.29060199501025 l -25.448554226283946 14.305874378102258 a50.19395406467163,50.19395406467163 0 0,0 -0.4169052234183653,-0.7568040788124069 l 25.69103585915383 -13.86569978089203" fill="#dbff1b" stroke="none" /><path d="M 81.02952815118164 109.00673069616217 l -31.980692828626026 15.183675455181723 a56.402100419709846,56.402100419709846 0 0,0 -0.40884911178232874,-0.8806246138546365 l 32.23731655724818 -14.63093077404826" fill="#89ff25" stroke="none" /><path d="M 80.73074385275274 108.34839909993369 l -38.9198064216899 16.86199375925811 a63.41554155541426,63.41554155541426 0 0,0 -0.4253341335827837,-1.0053642501177922 l 39.20429153646499 -16.189554983474157" fill="#34ff2f" stroke="none" /><path d="M 79.86692584326677 105.97154293290107 l -29.94190876894776 8.880878911727537 a52.231200921078226,52.231200921078226 0 0,0 -0.24824087791451954,-0.8641590621640995 l 30.09034228374838 -8.364162374058841" fill="#bfff1e" stroke="none" /><path d="M 79.35854240842038 103.8639653848113 l -26.25147719753464 4.91412967041706 a47.707465725342686,47.707465725342686 0 0,0 -0.1441527822502005,-0.8084853572232069 l 26.33217642212403 -4.461525562460639" fill="#feff18" stroke="none" /><line stroke="#e1ed5e" stroke-width="0.3" x1="15.007084014347285" x2="10.007500721073583" y1="101.09737516637583" y2="101.16192664675087" /><path d="M 14.007167355692545 101.11028546245083 a86.0,86.0 0 0,1 10.666146001902526,-42.60595125391555" fill="none" id="id10" stroke="none" /><text fill="#e1ed5e" style="font-size:6.75px; font-family:Arial;" text-anchor="middle"><textPath startOffset="22.20632615414155" xlink:href="#id10">October</textPath></text><path d="M 79.12142395522702 97.74499172005258 l -34.372726355921635 -3.712455407435479 a55.57262851290406,55.57262851290406 0 0,0 0.11090615445897613,-0.9501762021573585 l 34.30372984845907 4.3035753479176995" fill="#93ff23" stroke="none" /><line stroke="#e1ed5e" stroke-width="0.3" x1="26.266209847984243" x2="21.928928074336255" y1="57.71137044288968" y2="55.22380399835378" /><path d="M 25.398753493254645 57.2138571539825 a86.0,86.0 0 0,1 29.58750427330803,-30.4925239686951" fill="none" id="id11" stroke="none" /><text fill="#e1ed5e" style="font-size:6.75px; font-family:Arial;" text-anchor="middle"><textPath startOffset="21.46611528233685" xlink:href="#id11">November</textPath></text><line stroke="#e1ed5e" stroke-width="0.3" x1="56.76296977257108" x2="54.21961505331056" y1="26.818313649435495" y2="22.513508569990535" /><path d="M 56.25429882871898 25.957352633546506 a86.0,86.0 0 0,1 42.26535254187918,-11.944610805530505" fill="none" id="id12" stroke="none" /><text fill="#e1ed5e" style="font-size:6.75px; font-family:Arial;" text-anchor="middle"><textPath startOffset="22.20632615414155" xlink:href="#id12">December</textPath></text></svg>