<?xml version="1.0" encoding="utf-8" ?>
<svg baseProfile="full" height="200mm" version="1.1" viewBox="0,0,200,200" width="200mm" xmlns="http://www.w3.org/2000/svg" xmlns:ev="http://www.w3.org/2001/xml-events" xmlns:xlink="http://www.w3.org/1999/xlink"><defs /><rect fill="#1a1a1a" height="200" width="200" x="0" y="0" /><text alignment-baseline="middle" fill="#e1ed5e" style="dominant-baseline: central; font-size:9.0px; font-family:Arial;" text-anchor="middle" x="100.0" y="100.0">2016</text><line stroke="#e1ed5e" stroke-width="0.3" x1="100.0" x2="100.0" y1="15.0" y2="10.0" /><path d="M 100.0 14.0 a86.0,86.0 0 0,1 42.35913384403234,11.155469271406648" fill="none" id="id13" stroke="none" /><text fill="#e1ed5e" style="font-size:6.75px; font-family:Arial;" text-anchor="middle"><textPath startOffset="22.145653131862478" xlink:href="#id13">January</textPath></text><line stroke="#e1ed5e" stroke-width="0.3" x1="143.13028292997686" x2="145.6673583964461" y1="26.7553504044142" y2="22.446841604673864" /><path d="M 143.63769802327073 25.89364864446614 a86.0,86.0 0 0,1 29.32050498858742,28.57503671076992" fill="none" id="id14" stroke="none" /><text fill="#e1ed5e" style="font-size:6.75px; font-family:Arial;" text-anchor="middle"><textPath startOffset="20.669276256404974" xlink:href="#id14">February</textPath></text><line stroke="#e1ed5e" stroke-width="0.3" x1="172.87174338648825" x2="177.1583165268699" y1="56.24261187166439" y2="53.66864786411523" /><path d="M 173.72905801456457 55.72781907015455 a86.0,86.0 0 0,1 12.242430191666344,42.057860355516425" fill="none" id="id15" stroke="none" /><text fill="#e1ed5e" style="font-size:6.75px; font-family:Arial;" text-anchor="middle"><textPath startOffset="22.145653131862474" xlink:href="#id15">March</textPath></text><path d="M 119.83427380445688 93.10060997987247 l 59.50282141337066 -20.69817006038258 a84.0,84.0 0 0,0 0.46205831371054007,1.3659933021033535 l -59.84936514865356 19.673675083805065" fill="#4dd2ff" stroke="none" /><path d="M 120.77682067341334 96.94652285012252 l 32.07774694071008 -4.714324142401091 a53.42231794477163,53.42231794477163 0 0,0 0.1255563966145404,0.9084635400538248 l -32.15394785387983 4.16297229414718" fill="#a1ff22" stroke="none" /><path d="M 120.9064616781168 98.02013634271609 l 17.550143961779277 -1.6620168799963784 a38.62866566670803,38.62866566670803 0 0,0 0.056851053132290684,0.6606954131163764 l -17.57608863760931 1.3605004195043395" fill="#ff900d" stroke="none" /><line stroke="#e1ed5e" stroke-width="0.3" x1="184.99686870605535" x2="189.99668451229388" y1="99.2704041080226" y2="99.22748670261217" /><path d="M 185.99683186730306 99.26182062694052 a86.0,86.0 0 0,1 -10.086455211305974,41.156179273409016" fill="none" id="id16" stroke="none" /><text fill="#e1ed5e" style="font-size:6.75px; font-family:Arial;" text-anchor="middle"><textPath startOffset="21.40746469413373" xlink:href="#id16">April</textPath></text><path d="M 120.99922638620191 99.81974689727618 l 34.15227813253452 -0.2931562327706268 a55.15353630619833,55.15353630619833 0 0,0 0.0,0.9468186709889032 l -34.15227813253452 -0.29315623277062264" fill="#8bff24" stroke="none" /><path d="M 120.9064616781168 101.97986365728391 l 17.797149409898534 1.685408552743866 a38.87677625042932,38.87677625042932 0 0,0 -0.06862233731566666,0.6638588643629667 l -17.765594680101202 -1.9906719393897638" fill="#ff930d" stroke="none" /><path d="M 120.82617615685814 102.69636545807758 l 33.05576490987728 4.279730567052505 a54.33166193731776,54.33166193731776 0 0,0 -0.1276935924416763,0.9239272244160266 l -32.977426800880394 -4.846546099668617" fill="#96ff23" stroke="none" /><path d="M 120.7213421655516 103.40968896794604 l 32.4776803627261 5.344189944479733 a53.91443585884593,53.91443585884593 0 0,0 -0.15811097010334538,0.9119420592008645 l -32.381154575130516 -5.900925036601185" fill="#9bff22" stroke="none" /><path d="M 120.35273937422433 105.17358676015961 l 22.226144520466622 5.649799022440563 a43.93298343518869,43.93298343518869 0 0,0 -0.19207190566580276,0.7293283107892129 l -22.12588313399609 -6.030507837602579" fill="#ffde14" stroke="none" /><path d="M 120.16314734710363 105.8691983318838 l 17.594766391110387 5.121580067579288 a39.32502078433673,39.32502078433673 0 0,0 -0.1942350415088169,0.6465452816592717 l -17.50425502959794 -5.422862952829282" fill="#ff9a0e" stroke="none" /><path d="M 119.58574465831526 107.57618678355244 l 30.563113150470226 11.82246873705175 a53.77002673918671,53.77002673918671 0 0,0 -0.3403932667530667,0.8580133935571839 l -30.355661208751034 -12.3453831478225" fill="#9dff22" stroke="none" /><path d="M 119.4528033332814 107.91128576633889 l 30.723462740019116 12.494964828637652 a54.16708170469984,54.16708170469984 0 0,0 -0.3576940147296398,0.8583354214172494 l -30.50444288075299 -13.020532759496179" fill="#98ff23" stroke="none" /><line stroke="#e1ed5e" stroke-width="0.3" x1="174.33088141563837" x2="178.70328620479359" y1="141.23008692659167" y2="143.65538615756765" /><path d="M 175.20536237346943 141.71514677278685 a86.0,86.0 0 0,1 -30.301960400862466,31.63118572779886" fill="none" id="id17" stroke="none" /><text fill="#e1ed5e" style="font-size:6.75px; font-family:Arial;" text-anchor="middle"><textPath startOffset="22.145653131862474" xlink:href="#id17">May</textPath></text><line stroke="#e1ed5e" stroke-width="0.3" x1="143.1302829299769" x2="145.6673583964461" y1="173.24464959558577" y2="177.55315839532614" /><path d="M 143.63769802327073 174.10635135553383 a86.0,86.0 0 0,1 -40.685524379131806,11.842963189579606" fill="none" id="id18" stroke="none" /><text fill="#e1ed5e" style="font-size:6.75px; font-family:Arial;" text-anchor="middle"><textPath startOffset="21.407464694133747" xlink:href="#id18">June</textPath></text><path d="M 103.94208987418118 120.62667999033965 l 4.584015843835075 23.98550791566435 a45.419618982058836,45.419618982058836 0 0,0 -0.7670838699181612,0.1397882340072458 l -4.171597240365856 -24.06066432360296" fill="#fff316" stroke="none" /><path d="M 101.08105385017728 120.97215588758144 l 0.49444628703200466 9.592125876033403 a30.60486105846562,30.60486105846562 0 0,0 -0.5249086930309594,0.02254183782184613 l -0.32971183340021576 -9.59920028228108" fill="#ff1101" stroke="none" /><line stroke="#e1ed5e" stroke-width="0.3" x1="101.45913802915013" x2="101.54496967792366" y1="184.9874750549273" y2="189.98673829345242" /><path d="M 101.47630435890484 185.9873277026323 a86.0,86.0 0 0,1 -42.54439059252881,-10.42667462771756" fill="none" id="id19" stroke="none" /><text fill="#e1ed5e" style="font-size:6.75px; font-family:Arial;" text-anchor="middle"><textPath startOffset="22.145653131862474" xlink:href="#id19">July</textPath></text><path d="M 99.63950707515114 120.99690560180557 l -0.4878248538481866 28.41335210880951 a49.417539498472095,49.417539498472095 0 0,0 -0.848067775553927,-0.021843217594762532 l 0.9755059434728576 -28.400791173864697" fill="#d5ff1c" stroke="none" /><line stroke="#e1ed5e" stroke-width="0.3" x1="58.13341422392154" x2="55.670673884152215" y1="173.97424548756322" y2="178.32567169271397" /><path d="M 57.64086615596767 174.84453072859336 a86.0,86.0 0 0,1 -31.369924170532244,-30.572349798747886" fill="none" id="id20" stroke="none" /><text fill="#e1ed5e" style="font-size:6.75px; font-family:Arial;" text-anchor="middle"><textPath startOffset="22.145653131862474" xlink:href="#id20">August</textPath></text><path d="M 82.37810715431573 111.42229804090323 l -14.796657070446555 9.591014344924401 a38.63316808247859,38.63316808247859 0 0,0 -0.35594450192394994,-0.5596038778347757 l 14.959119263996396 -9.335596792410952" fill="#ff900d" stroke="none" /><line stroke="#e1ed5e" stroke-width="0.3" x1="26.387840678322732" x2="22.057713659400548" y1="142.50000000000003" y2="145.00000000000006" /><path d="M 25.521815274538298 143.00000000000003 a86.0,86.0 0 0,1 -11.493303480769221,-40.785679425670985" fill="none" id="id21" stroke="none" /><text fill="#e1ed5e" style="font-size:6.75px; font-family:Arial;" text-anchor="middle"><textPath startOffset="21.40746469413373" xlink:href="#id21">September</textPath></text><line stroke="#e1ed5e" stroke-width="0.3" x1="15.003131293944662" x2="10.003315487706104" y1="100.72959589197737" y2="100.7725132973878" /><path d="M 14.003168132696942 100.73817937305945 a86.0,86.0 0 0,1 10.791469493833604,-42.453326145846276" fill="none" id="id22" stroke="none" /><text fill="#e1ed5e" style="font-size:6.75px; font-family:Arial;" text-anchor="middle"><textPath startOffset="22.145653131862435" xlink:href="#id22">October</textPath></text><path d="M 80.28708602549916 92.7611449362534 l -19.374809135231164 -7.114698283526773 a41.63981978342485,41.63981978342485 0 0,0 0.2521574956165838,-0.6688777152356463 l 19.249820955800143 7.446244278956565" fill="#ffbc11" stroke="none" /><line stroke="#e1ed5e" stroke-width="0.3" x1="26.387840678322718" x2="22.05771365940052" y1="57.5" y2="55.0" /><path d="M 25.521815274538284 57.0 a86.0,86.0 0 0,1 29.574782752854787,-30.346332500585742" fill="none" id="id23" stroke="none" /><text fill="#e1ed5e" style="font-size:6.75px; font-family:Arial;" text-anchor="middle"><textPath startOffset="21.40746469413373" xlink:href="#id23">November</textPath></text><path d="M 84.10781606972428 86.27271002978789 l -12.55899877966237 -10.848164024551057 a37.59551484742563,37.59551484742563 0 0,0 0.42606269421275067,-0.48478113476408724 l 12.370925021491026 11.062157437126444" fill="#ff800b" stroke="none" /><path d="M 89.03521579738668 82.08984904055464 l -11.176212221065363 -18.25550273815432 a42.40493167083349,42.40493167083349 0 0,0 0.6240940638035648,-0.3747505536351195 l 10.861185400704365 18.444667292325363" fill="#ffc812" stroke="none" /><line stroke="#e1ed5e" stroke-width="0.3" x1="56.869717070023135" x2="54.33264160355391" y1="26.7553504044142" y2="22.446841604673864" /><path d="M 56.362301976729285 25.89364864446614 a86.0,86.0 0 0,1 42.16139366436587,-11.88097634709845" fill="none" id="id24" stroke="none" /><text fill="#e1ed5e" style="font-size:6.75px; font-family:Arial;" text-anchor="middle"><textPath startOffset="22.145653131862474" xlink:href="#id24">December</textPath></text><path d="M 90.28995756902619 81.37971332152246 l -3.971249446574999 -7.615394442674513 a29.58865849154803,29.58865849154803 0 0,0 0.4523863232213983,-0.23099168001701811 l 3.8399359016400196 7.682444074364366" fill="#ff0000" stroke="none" /><path d="M 92.25597844496254 80.48000691201159 l -4.9335734341799 -12.435827902832965 a34.37871303449344,34.37871303449344 0 0,0 0.5504322334272371,-0.21291901252078185 l 4.7193689382591355 12.518686803491788" fill="#ff4e07" stroke="none" /></svg>